<?xml version="1.0" standalone="yes"?>
<svg xmlns="http://www.w3.org/2000/svg" width="710" height="346">
<path style="fill:#ffffff; stroke:none;" d="M0 0L0 346L710 346L710 0L0 0z"/>
<path style="fill:#e57332; stroke:none;" d="M481 54C464.644 70.2206 446.288 84.6267 429 99.8449C424.565 103.749 412.672 110.734 411.921 117C411.215 122.894 423.383 132.869 427.05 137C442.02 153.863 459.055 170.551 472 189L484 179.424L496.658 166.985L490.95 157L470.845 134L460.631 120.09L472 108.718L504 81C500.019 71.5985 489.257 59.9387 481 54z"/>
<path style="fill:#f1b290; stroke:none;" d="M482 54L483 55L482 54M483 55L484 56L483 55M477 57L478 58L477 57z"/>
<path style="fill:#9e81ee; stroke:none;" d="M530 57L534 61L530 57z"/>
<path style="fill:#f1b290; stroke:none;" d="M476 58L477 59L476 58z"/>
<path style="fill:#572de3; stroke:none;" d="M521 192C539.87 180.197 556.145 161.957 573 147.424C577.696 143.374 590.055 136.084 591.654 129.961C592.961 124.958 582.414 116.469 579.424 113C567.589 99.2751 555.611 85.6742 543.718 72C540.729 68.5632 535.062 59.2305 530 59.206C526.721 59.1902 523.281 63.302 521 65.2816C514.011 71.3482 507.07 77.4508 500 83.4244C489.866 91.987 480.047 100.913 470 109.576C467.185 112.004 460.451 116.054 460.037 120.09C459.451 125.802 470.786 134.98 474.282 139C489.684 156.709 504.778 175.05 521 192z"/>
<path style="fill:#f1b290; stroke:none;" d="M475 59L476 60L475 59M527 59L528 60L527 59M474 60L475 61L474 60M487 60L488 61L487 60M526 60L527 61L526 60M488 61L489 62L488 61z"/>
<path style="fill:#9e81ee; stroke:none;" d="M525 61L526 62L525 61z"/>
<path style="fill:#f1b290; stroke:none;" d="M534 61L535 62L534 61M489 62L490 63L489 62z"/>
<path style="fill:#9e81ee; stroke:none;" d="M524 62L525 63L524 62z"/>
<path style="fill:#f1b290; stroke:none;" d="M535 62L536 63L535 62M490 63L491 64L490 63z"/>
<path style="fill:#9e81ee; stroke:none;" d="M523 63L524 64L523 63z"/>
<path style="fill:#f1b290; stroke:none;" d="M469 64L470 65L469 64M468 65L469 66L468 65M467 66L468 67L467 66M519 66L520 67L519 66z"/>
<path style="fill:#9e81ee; stroke:none;" d="M538 66L539 67L538 66z"/>
<path style="fill:#f1b290; stroke:none;" d="M466 67L467 68L466 67M518 67L519 68L518 67z"/>
<path style="fill:#9e81ee; stroke:none;" d="M539 67L540 68L539 67z"/>
<path style="fill:#f1b290; stroke:none;" d="M494 68L495 69L494 68z"/>
<path style="fill:#9e81ee; stroke:none;" d="M517 68L518 69L517 68M540 68L541 69L540 68z"/>
<path style="fill:#f1b290; stroke:none;" d="M495 69L496 70L495 69z"/>
<path style="fill:#9e81ee; stroke:none;" d="M516 69L517 70L516 69z"/>
<path style="fill:#f1b290; stroke:none;" d="M541 69L542 70L541 69M496 70L497 71L496 70z"/>
<path style="fill:#9e81ee; stroke:none;" d="M515 70L516 71L515 70z"/>
<path style="fill:#f1b290; stroke:none;" d="M461 71L462 72L461 71M497 71L498 72L497 71M460 72L461 73L460 72M459 73L460 74L459 73M511 73L512 74L511 73M458 74L459 75L458 74M510 74L511 75L510 74z"/>
<path style="fill:#9e81ee; stroke:none;" d="M545 74L546 75L545 74M509 75L510 76L509 75M546 75L547 76L546 75z"/>
<path style="fill:#f1b290; stroke:none;" d="M501 76L502 77L501 76z"/>
<path style="fill:#9e81ee; stroke:none;" d="M508 76L509 77L508 76M547 76L548 77L547 76z"/>
<path style="fill:#f1b290; stroke:none;" d="M502 77L503 78L502 77z"/>
<path style="fill:#9e81ee; stroke:none;" d="M507 77L508 78L507 77z"/>
<path style="fill:#f1b290; stroke:none;" d="M548 77L549 78L548 77M453 78L454 79L453 78M503 78L504 79L503 78M452 79L453 80L452 79M504 79L505 80L504 79M451 80L452 81L451 80M450 81L451 82L450 81z"/>
<path style="fill:#9e81ee; stroke:none;" d="M501 82L502 83L501 82M552 82L553 83L552 82M553 83L554 84L553 83M554 84L555 85L554 84z"/>
<path style="fill:#f1b290; stroke:none;" d="M445 85L446 86L445 85M555 85L556 86L555 85M444 86L445 87L444 86M443 87L444 88L443 87M442 88L443 89L442 88z"/>
<path style="fill:#9e81ee; stroke:none;" d="M559 90L560 91L559 90M560 91L561 92L560 91z"/>
<path style="fill:#f1b290; stroke:none;" d="M437 92L438 93L437 92M561 92L562 93L561 92M436 93L437 94L436 93M562 93L563 94L562 93M435 94L436 95L435 94M430 98L431 99L430 98z"/>
<path style="fill:#9e81ee; stroke:none;" d="M566 98L567 99L566 98z"/>
<path style="fill:#f1b290; stroke:none;" d="M429 99L430 100L429 99z"/>
<path style="fill:#9e81ee; stroke:none;" d="M567 99L568 100L567 99z"/>
<path style="fill:#f1b290; stroke:none;" d="M428 100L429 101L428 100M568 100L569 101L568 100M427 101L428 102L427 101M569 101L570 102L569 101M372 105L372 112L373 112L373 106C379.096 106 392.379 103.414 396 109L397 109L397 105L372 105M422 105L423 106L422 105z"/>
<path style="fill:#9e81ee; stroke:none;" d="M572 105L573 106L572 105z"/>
<path style="fill:#e57332; stroke:none;" d="M373 106L376 185L393 185L396 106L373 106z"/>
<path style="fill:#f1b290; stroke:none;" d="M421 106L422 107L421 106z"/>
<path style="fill:#9e81ee; stroke:none;" d="M573 106L574 107L573 106z"/>
<path style="fill:#f1b290; stroke:none;" d="M420 107L421 108L420 107z"/>
<path style="fill:#9e81ee; stroke:none;" d="M574 107L575 108L574 107z"/>
<path style="fill:#f1b290; stroke:none;" d="M419 108L420 109L419 108M575 108L576 109L575 108M576 109L577 110L576 109M108 110L109 111L108 110z"/>
<path style="fill:#e57332; stroke:none;" d="M109 110C117.625 132.754 140.548 149.269 149.157 172C154.235 185.408 150 207.661 150 222L175 222C175 207.28 171.049 185.96 175.702 172C177.949 165.26 183.75 158.875 187.667 153C197.121 138.819 207.711 124.889 216 110L187.093 110.603L179 120L163 146C155.063 136.687 149.036 117.302 138.671 111.028C132.074 107.034 116.629 110 109 110z"/>
<path style="fill:#f1b290; stroke:none;" d="M185 110L186 111L185 110M184 111L185 112L184 111M140 112L141 113L140 112M214 112L215 113L214 112M414 112L415 113L414 112M110 113L111 114L110 113M183 113L184 114L183 113M413 113L414 114L413 113z"/>
<path style="fill:#9e81ee; stroke:none;" d="M579 113L580 114L579 113z"/>
<path style="fill:#f1b290; stroke:none;" d="M182 114L183 115L182 114M412 114L413 115L412 114z"/>
<path style="fill:#9e81ee; stroke:none;" d="M580 114L581 115L580 114z"/>
<path style="fill:#f1b290; stroke:none;" d="M142 115L143 116L142 115M212 115L213 116L212 115M411 115L412 116L411 115z"/>
<path style="fill:#9e81ee; stroke:none;" d="M581 115L582 116L581 115z"/>
<path style="fill:#f1b290; stroke:none;" d="M112 116L113 117L112 116M181 116L182 117L181 116M410.333 116.667L410.667 117.333L410.333 116.667M582 116L583 117L582 116M143 117L144 118L143 117M180 117L181 118L180 117M583 117L584 118L583 117M144 118L145 119L144 118M210 118L211 119L210 118M114 119L115 120L114 119M179 119L180 120L179 119M145 120L146 121L145 120M178 120L179 121L178 120M146 121L147 122L146 121M208 121L209 122L208 121M413 121L414 122L413 121z"/>
<path style="fill:#9e81ee; stroke:none;" d="M459 121L460 122L459 121M586 121L587 122L586 121z"/>
<path style="fill:#f1b290; stroke:none;" d="M116 122L117 123L116 122M177 122L178 123L177 122M395 122L395 134L396 134L395 122M414 122L415 123L414 122z"/>
<path style="fill:#9e81ee; stroke:none;" d="M587 122L588 123L587 122z"/>
<path style="fill:#f1b290; stroke:none;" d="M147 123L148 124L147 123M415 123L416 124L415 123z"/>
<path style="fill:#9e81ee; stroke:none;" d="M588 123L589 124L588 123z"/>
<path style="fill:#f1b290; stroke:none;" d="M148 124L149 125L148 124M206 124L207 125L206 124M416 124L417 125L416 124M589 124L590 125L589 124M118 125L119 126L118 125M175 125L176 126L175 125M373 125L373 137L374 137L373 125M590 125L591 126L590 125M149 126L150 127L149 126M204 127L205 128L204 127M120 128L121 129L120 128M173 128L174 129L173 128M151 129L152 130L151 129M420 129L421 130L420 129M593 129L594 130L593 129M202 130L203 131L202 130M421 130L422 131L421 130M592 130L593 131L592 130M122 131L123 132L122 131M171 131L172 132L171 131M422 131L423 132L422 131M153 132L154 133L153 132M423 132L424 133L423 132M170 133L171 134L170 133M200 133L201 134L200 133M124 134L125 135L124 134M169 134L170 135L169 134z"/>
<path style="fill:#9e81ee; stroke:none;" d="M587 134L588 135L587 134z"/>
<path style="fill:#f1b290; stroke:none;" d="M125 135L126 136L125 135M155 135L156 136L155 135z"/>
<path style="fill:#9e81ee; stroke:none;" d="M586 135L587 136L586 135z"/>
<path style="fill:#f1b290; stroke:none;" d="M168 136L169 137L168 136M198 136L199 137L198 136M585 136L586 137L585 136M126 137L127 138L126 137M156 137L157 138L156 137M167 137L168 138L167 137M427 137L428 138L427 137M584 137L585 138L584 137M127 138L128 139L127 138M157 138L158 139L157 138M428 138L429 139L428 138M166 139L167 140L166 139M196 139L197 140L196 139M429 139L430 140L429 139M128 140L129 141L128 140M158 140L159 141L158 140M165 140L166 141L165 140M430 140L431 141L430 140z"/>
<path style="fill:#9e81ee; stroke:none;" d="M580 140L581 141L580 140z"/>
<path style="fill:#f1b290; stroke:none;" d="M129 141L130 142L129 141M159 141L160 142L159 141z"/>
<path style="fill:#9e81ee; stroke:none;" d="M579 141L580 142L579 141z"/>
<path style="fill:#f1b290; stroke:none;" d="M164 142L165 143L164 142M194 142L195 143L194 142z"/>
<path style="fill:#9e81ee; stroke:none;" d="M578 142L579 143L578 142z"/>
<path style="fill:#f1b290; stroke:none;" d="M130 143L131 144L130 143M160 143L161 144L160 143M577 143L578 144L577 143M131 144L132 145L131 144M161 144L162 145L161 144M576 144L577 145L576 144M162 145L163 146L162 145M192 145L193 146L192 145M434 145L435 146L434 145M132 146L133 147L132 146M435 146L436 147L435 146M133 147L134 148L133 147M394 147L394 159L395 159L394 147M436 147L437 148L436 147z"/>
<path style="fill:#9e81ee; stroke:none;" d="M572 147L573 148L572 147z"/>
<path style="fill:#f1b290; stroke:none;" d="M190 148L191 149L190 148M437 148L438 149L437 148z"/>
<path style="fill:#9e81ee; stroke:none;" d="M571 148L572 149L571 148z"/>
<path style="fill:#f1b290; stroke:none;" d="M134 149L135 150L134 149z"/>
<path style="fill:#9e81ee; stroke:none;" d="M570 149L571 150L570 149z"/>
<path style="fill:#f1b290; stroke:none;" d="M135 150L136 151L135 150M249 150L249 151L259 151L249 150M326 150L326 151L339 151L326 150M374 150L374 162L375 162L374 150M569 150L570 151L569 150M188 151L189 152L188 151M243.667 151.333L244.333 151.667L243.667 151.333z"/>
<path style="fill:#e57332; stroke:none;" d="M289 206C284.765 203.528 278.043 198.593 273 198.704C268.999 198.793 265.75 202.79 262 204.007C251.542 207.4 240.996 200.976 240 190L290 190C290 178.158 288.491 167.031 278.829 158.9C258.942 142.164 222.806 151.848 216.68 178C206.919 219.668 268.173 242.03 289 206z"/>
<path style="fill:#f1b290; stroke:none;" d="M263.667 151.333L264.333 151.667L263.667 151.333M320 151L320 152L323 152L320 151z"/>
<path style="fill:#e57332; stroke:none;" d="M306 199C304.11 203.043 297.482 210.281 299.242 214.895C301.197 220.021 310.269 221.917 315 222.715C328.508 224.993 349.559 224.441 355.16 209C359.637 196.659 353.637 185.536 342 180.349C338.298 178.699 325.083 176.964 325.921 171.066C327.171 162.27 343.814 169.806 348 171L355 155C342.246 151.59 328.898 148.355 316 153.465C305.686 157.55 298.313 170.302 304.14 181C308.502 189.01 317.291 191.864 324.996 195.443C327.443 196.579 331.4 198.596 330.539 201.957C327.912 212.2 310.751 200.729 306 199z"/>
<path style="fill:#f1b290; stroke:none;" d="M342.667 151.333L343.333 151.667L342.667 151.333M568 151L569 152L568 151M136 152L137 153L136 152M240.667 152.333L241.333 152.667L240.667 152.333M267 152L268 153L267 152M317.667 152.333L318.333 152.667L317.667 152.333M346.667 152.333L347.333 152.667L346.667 152.333M137 153L138 154L137 153M237 153L238 154L237 153M270 153L271 154L270 153M315 153L316 154L315 153M350 153L351 154L350 153M441 153L442 154L441 153M186 154L187 155L186 154M236 154L237 155L236 154M272 154L273 155L272 154M313 154L314 155L313 154M352.667 154.333L353.333 154.667L352.667 154.333M442 154L443 155L442 154z"/>
<path style="fill:#9e81ee; stroke:none;" d="M564 154L565 155L564 154z"/>
<path style="fill:#f1b290; stroke:none;" d="M138 155L139 156L138 155M234 155L235 156L234 155M274 155L275 156L274 155M311 155L312 156L311 155M355.333 155.667L355.667 156.333L355.333 155.667M443 155L444 156L443 155z"/>
<path style="fill:#9e81ee; stroke:none;" d="M563 155L564 156L563 155z"/>
<path style="fill:#f1b290; stroke:none;" d="M139 156L140 157L139 156M232 156L233 157L232 156M275 156L276 157L275 156M444 156L445 157L444 156z"/>
<path style="fill:#9e81ee; stroke:none;" d="M562 156L563 157L562 156z"/>
<path style="fill:#f1b290; stroke:none;" d="M184 157L185 158L184 157M561 157L562 158L561 157M140 158L141 159L140 158M229 158L230 159L229 158M278 158L279 159L278 158M307 158L308 159L307 158M354 158L355 159L354 158M560 158L561 159L560 158M141 159L142 160L141 159M228 159L229 160L228 159M279 159L280 160L279 159M306 159L307 160L306 159M182 160L183 161L182 160M227 160L228 161L227 160M353 160L354 161L353 160M142 161L143 162L142 161M281 161L282 162L281 161M305 161L306 162L305 161M448 161L449 162L448 161z"/>
<path style="fill:#9e81ee; stroke:none;" d="M556 161L557 162L556 161z"/>
<path style="fill:#f1b290; stroke:none;" d="M143 162L144 163L143 162M225 162L226 163L225 162M282 162L283 163L282 162M304 162L305 163L304 162M352 162L353 163L352 162M449 162L450 163L449 162z"/>
<path style="fill:#9e81ee; stroke:none;" d="M555 162L556 163L555 162z"/>
<path style="fill:#f1b290; stroke:none;" d="M180 163L181 164L180 163M224 163L225 164L224 163M283 163L284 164L283 163M450 163L451 164L450 163z"/>
<path style="fill:#9e81ee; stroke:none;" d="M554 163L555 164L554 163z"/>
<path style="fill:#f1b290; stroke:none;" d="M144 164L145 165L144 164M223 164L224 165L223 164M284 164L285 165L284 164M303.333 164.667L303.667 165.333L303.333 164.667M351 164L352 165L351 164M451 164L452 165L451 164M553 164L554 165L553 164M145 165L146 166L145 165M222 165L223 166L222 165M552 165L553 166L552 165M178 166L179 167L178 166M249 166L249 167L252 167L249 166z"/>
<path style="fill:#ffffff; stroke:none;" d="M241 177L267 177C263.484 163.538 243.626 162.544 241 177z"/>
<path style="fill:#f1b290; stroke:none;" d="M256 166L256 167L259 167L256 166M285 166L286 167L285 166M350 166L351 167L350 166z"/>
<path style="fill:#9e81ee; stroke:none;" d="M498 166L499 167L498 166z"/>
<path style="fill:#f1b290; stroke:none;" d="M146 167L147 168L146 167M247 167L248 168L247 167M260 167L261 168L260 167M302 167L302 171L303 171L302 167M328.667 167.333L329.333 167.667L328.667 167.333M334 167L334 168L338 168L334 167M497 167L498 168L497 167M499 167L500 168L499 167M147 168L148 169L147 168M220 168L221 169L220 168M245 168L246 169L245 168M262 168L263 169L262 168M286 168L287 169L286 168M340.667 168.333L341.333 168.667L340.667 168.333M349 168L350 169L349 168M496 168L497 169L496 168z"/>
<path style="fill:#9e81ee; stroke:none;" d="M500 168L501 169L500 168M548 168L549 169L548 168z"/>
<path style="fill:#f1b290; stroke:none;" d="M176 169L177 170L176 169M263 169L264 170L263 169M325 169L326 170L325 169M343 169L344 170L343 169M455 169L456 170L455 169z"/>
<path style="fill:#9e81ee; stroke:none;" d="M501 169L502 170L501 169M547 169L548 170L547 169z"/>
<path style="fill:#f1b290; stroke:none;" d="M148 170L149 171L148 170M219 170L220 171L219 170M264 170L265 171L264 170M287 170L288 171L287 170M345 170L346 171L345 170M348 170L349 171L348 170M456 170L457 171L456 170z"/>
<path style="fill:#9e81ee; stroke:none;" d="M502 170L503 171L502 170M546 170L547 171L546 170z"/>
<path style="fill:#f1b290; stroke:none;" d="M149 171L149 222L150 222C150 207.689 154.508 184.127 149 171M242 171L243 172L242 171M347 171L348 172L347 171M393 171L393 183L394 183L393 171M457 171L458 172L457 171M545 171L546 172L545 171M218 172L219 173L218 172M288.333 172.667L288.667 173.333L288.333 172.667M458 172L459 173L458 172M491 172L492 173L491 172M241 173L242 174L241 173M325 173L326 174L325 173M490 173L491 174L490 173M217 174L218 175L217 174M266 174L267 175L266 174M326 174L327 175L326 174M375 174L375 185L376 185L375 174M489 174L490 175L489 174M505 174L506 175L505 174M328 175L329 176L328 175M488 175L489 176L488 175M506 175L507 176L506 175z"/>
<path style="fill:#9e81ee; stroke:none;" d="M540 175L541 176L540 175z"/>
<path style="fill:#f1b290; stroke:none;" d="M289.333 176.667L289.667 177.333L289.333 176.667M302.333 176.667L302.667 177.333L302.333 176.667M330.667 176.333L331.333 176.667L330.667 176.333z"/>
<path style="fill:#9e81ee; stroke:none;" d="M507 176L508 177L507 176M539 176L540 177L539 176z"/>
<path style="fill:#f1b290; stroke:none;" d="M216.333 177.667L216.667 178.333L216.333 177.667M333.667 177.333L334.333 177.667L333.667 177.333M462 177L463 178L462 177z"/>
<path style="fill:#9e81ee; stroke:none;" d="M508 177L509 178L508 177M538 177L539 178L538 177z"/>
<path style="fill:#f1b290; stroke:none;" d="M336.667 178.333L337.333 178.667L336.667 178.333M463 178L464 179L463 178z"/>
<path style="fill:#9e81ee; stroke:none;" d="M509 178L510 179L509 178z"/>
<path style="fill:#f1b290; stroke:none;" d="M537 178L538 179L537 178M340 179L341 180L340 179M464 179L465 180L464 179M483 179L484 180L483 179M303 180L304 181L303 180M342 180L343 181L342 180M482 180L483 181L482 180M215 181L215 186L216 186L215 181M290 181L290 190L240 190L240 191L291 191L290 181M344 181L345 182L344 181M481 181L482 182L481 181M304 182L305 183L304 182M346 182L347 183L346 182M480 182L481 183L480 182M512 182L513 183L512 182z"/>
<path style="fill:#9e81ee; stroke:none;" d="M532 182L533 183L532 182z"/>
<path style="fill:#f1b290; stroke:none;" d="M305 183L306 184L305 183M347 183L348 184L347 183z"/>
<path style="fill:#9e81ee; stroke:none;" d="M513 183L514 184L513 183M531 183L532 184L531 183z"/>
<path style="fill:#f1b290; stroke:none;" d="M306 184L307 185L306 184M349 184L350 185L349 184M468 184L469 185L468 184z"/>
<path style="fill:#9e81ee; stroke:none;" d="M514 184L515 185L514 184M530 184L531 185L530 184z"/>
<path style="fill:#f1b290; stroke:none;" d="M307 185L308 186L307 185M350 185L351 186L350 185M376 185L376 186L393 186L376 185M469 185L470 186L469 185z"/>
<path style="fill:#9e81ee; stroke:none;" d="M515 185L516 186L515 185z"/>
<path style="fill:#f1b290; stroke:none;" d="M529 185L530 186L529 185M308 186L309 187L308 186M351 186L352 187L351 186M470 186L471 187L470 186M475 186L476 187L475 186M309 187L310 188L309 187M352 187L353 188L352 187M471 187L472 188L471 187M474 187L475 188L474 187M215 188L215 193L216 193L215 188M353 188L354 189L353 188M473 188L474 189L473 188M312 189L313 190L312 189z"/>
<path style="fill:#9e81ee; stroke:none;" d="M524 189L525 190L524 189z"/>
<path style="fill:#f1b290; stroke:none;" d="M314 190L315 191L314 190M354 190L355 191L354 190M519 190L520 191L519 190z"/>
<path style="fill:#9e81ee; stroke:none;" d="M523 190L524 191L523 190z"/>
<path style="fill:#f1b290; stroke:none;" d="M315 191L316 192L315 191z"/>
<path style="fill:#9e81ee; stroke:none;" d="M520 191L521 192L520 191z"/>
<path style="fill:#f1b290; stroke:none;" d="M522 191L523 192L522 191M317 192L318 193L317 192M355 192L356 193L355 192M240.333 193.667L240.667 194.333L240.333 193.667M320 193L321 194L320 193M380 193L381 194L380 193z"/>
<path style="fill:#e57332; stroke:none;" d="M381 193.537C361.579 198.025 368.799 228.097 388 223.287C407.12 218.498 400.025 189.14 381 193.537z"/>
<path style="fill:#f1b290; stroke:none;" d="M387.667 193.333L388.333 193.667L387.667 193.333M322 194L323 195L322 194M377 194L378 195L377 194M391 194L392 195L391 194M325 195L326 196L325 195M356 195L356 198L357 198L356 195M216 196L217 197L216 196M327 196L328 197L327 196M374 196L375 197L374 196M394 196L395 197L394 196M241 197L242 198L241 197M272 197L273 198L272 197M329 197L330 198L329 197M373 197L374 198L373 197M395 197L396 198L395 197M270 198L271 199L270 198M274 198L275 199L274 198M307 198L308 199L307 198M330 198L331 199L330 198M372 198L373 199L372 198M396 198L397 199L396 198M217.333 199.667L217.667 200.333L217.333 199.667M269 199L270 200L269 199M276 199L277 200L276 199M308 199L309 200L308 199M268 200L269 201L268 200M278 200L279 201L278 200M305 200L306 201L305 200M309 200L310 201L309 200M331 200L331 203L332 203L331 200M397 200L398 201L397 200M267 201L268 202L267 201M280 201L281 202L280 201M311 201L312 202L311 201M370 201L371 202L370 201M398 201L399 202L398 201M218 202L219 203L218 202M246 202L247 203L246 202M265 202L266 203L265 202M282 202L283 203L282 202M304 202L305 203L304 202M313 202L314 203L313 202M248 203L249 204L248 203M263.667 203.333L264.333 203.667L263.667 203.333M284 203L285 204L284 203M315 203L316 204L315 203M356 203L356 206L357 206L356 203M251.667 204.333L252.333 204.667L251.667 204.333M258 204L258 205L261 205L258 204M286 204L287 205L286 204M317 204L318 205L317 204M369 204L370 205L369 204M399.333 204.667L399.667 205.333L399.333 204.667M220 205L221 206L220 205M288 205L289 206L288 205M302 205L303 206L302 205M319.667 205.333L320.333 205.667L319.667 205.333M328 205L329 206L328 205M221 207L222 208L221 207M288 207L289 208L288 207M301 207L302 208L301 207M222 208L223 209L222 208M287 208L288 209L287 208M355.333 208.667L355.667 209.333L355.333 208.667M299 210L300 211L299 210M285 211L286 212L285 211M354 211L355 212L354 211M399.333 211.667L399.667 212.333L399.333 211.667M284 212L285 213L284 212M298 212L299 213L298 212M353 212L354 213L353 212M369 212L370 213L369 212M226 213L227 214L226 213M283 213L284 214L283 213M282 214L283 215L282 214M297 214L298 215L297 214M352 214L353 215L352 214M229 215L230 216L229 215M298 215L299 216L298 215M351 215L352 216L351 215M370 215L371 216L370 215M398 215L399 216L398 215M230 216L231 217L230 216M299 216L300 217L299 216M350 216L351 217L350 216M397 216L398 217L397 216M231 217L232 218L231 217M278 217L279 218L278 217M300 217L301 218L300 217M349 217L350 218L349 217M233 218L234 219L233 218M276 218L277 219L276 218M302 218L303 219L302 218M372 218L373 219L372 218M235 219L236 220L235 219M274 219L275 220L274 219M304 219L305 220L304 219M346 219L347 220L346 219M373 219L374 220L373 219M395 219L396 220L395 219M237 220L238 221L237 220M272 220L273 221L272 220M306 220L307 221L306 220M344 220L345 221L344 220M374 220L375 221L374 220M239 221L240 222L239 221M269.667 221.333L270.333 221.667L269.667 221.333M309 221L310 222L309 221M341 221L342 222L341 221M392 221L393 222L392 221M242.667 222.333L243.333 222.667L242.667 222.333M266 222L267 223L266 222M312.667 222.333L313.333 222.667L312.667 222.333M337.667 222.333L338.333 222.667L337.667 222.333M377 222L378 223L377 222M391 222L392 223L391 222M246 223L246 224L250 224L246 223M259 223L259 224L263 224L259 223M316 223L316 224L321 224L316 223M329 223L329 224L334 224L329 223M380.667 223.333L381.333 223.667L380.667 223.333M387.667 223.333L388.333 223.667L387.667 223.333z"/>
<path style="fill:#572de3; stroke:none;" d="M540 248L540 285L547 285L547 248L540 248z"/>
<path style="fill:#9e81ee; stroke:none;" d="M547 248L547 285L548 285C548 274.351 551.111 257.798 547 248z"/>
<path style="fill:#f1b290; stroke:none;" d="M72 249L72 250L86 250L72 249z"/>
<path style="fill:#9e81ee; stroke:none;" d="M202.667 249.333L203.333 249.667L202.667 249.333z"/>
<path style="fill:#f1b290; stroke:none;" d="M204 249L205 250L204 249M364 249L365 250L364 249z"/>
<path style="fill:#9e81ee; stroke:none;" d="M365.667 249.333L366.333 249.667L365.667 249.333z"/>
<path style="fill:#572de3; stroke:none;" d="M376 281L377 281C380.617 285.343 384.679 284.999 390 285L384.992 277L385.25 270.376L373 266C387.869 258.833 370.26 241.909 360.854 252.43C356.578 257.213 361.093 261.004 359.583 265.83C358.011 270.859 351.891 272.607 354.188 278.957C357.294 287.541 370.725 286.265 376 281z"/>
<path style="fill:#9e81ee; stroke:none;" d="M371.667 249.333L372.333 249.667L371.667 249.333z"/>
<path style="fill:#f1b290; stroke:none;" d="M373 249L374 250L373 249M414 249L415 250L414 249z"/>
<path style="fill:#9e81ee; stroke:none;" d="M415.667 249.333L416.333 249.667L415.667 249.333z"/>
<path style="fill:#572de3; stroke:none;" d="M428 276C425.054 276.778 422.094 278.004 419 277.424C409.922 275.721 405.638 264.607 414.105 259.009C418.597 256.039 423.35 257.305 428 259L431 252C424.115 249.434 417.952 248.044 411.001 251.403C399.553 256.935 397.508 272.38 407.043 280.775C413.294 286.279 432.529 288.798 428 276z"/>
<path style="fill:#9e81ee; stroke:none;" d="M423.667 249.333L424.333 249.667L423.667 249.333z"/>
<path style="fill:#f1b290; stroke:none;" d="M425 249L426 250L425 249z"/>
<path style="fill:#9e81ee; stroke:none;" d="M72 250L72 285L73 285L72 250z"/>
<path style="fill:#572de3; stroke:none;" d="M73 250L73 285L80 285L80 271C87.0395 279.135 89.594 284.999 101 285L89 270C96.1759 266.571 99.2858 255.9 90.956 251.457C85.8968 248.758 78.5512 250 73 250z"/>
<path style="fill:#9e81ee; stroke:none;" d="M89 250L90 251L89 250M200 250L199 252L200 250z"/>
<path style="fill:#572de3; stroke:none;" d="M201.318 251.047C197.227 253.66 201.65 259.56 205.397 256.802C208.891 254.229 205.156 248.595 201.318 251.047z"/>
<path style="fill:#f1b290; stroke:none;" d="M362 250L363 251L362 250M375 250L376 251L375 250z"/>
<path style="fill:#9e81ee; stroke:none;" d="M412 250L413 251L412 250M427 250L428 251L427 250z"/>
<path style="fill:#f1b290; stroke:none;" d="M428 250L429 251L428 250z"/>
<path style="fill:#9e81ee; stroke:none;" d="M91 251L92 252L91 251M376 251L377 252L376 251M410 251L411 252L410 251M429 251L430 252L429 251M93 252L94 253L93 252M207 252L207 256L208 256L207 252M360 252L361 253L360 252M377 252L378 253L377 252M408 252L409 253L408 252z"/>
<path style="fill:#f1b290; stroke:none;" d="M94 253L95 254L94 253z"/>
<path style="fill:#9e81ee; stroke:none;" d="M359 253L360 254L359 253z"/>
<path style="fill:#f1b290; stroke:none;" d="M378 253L379 254L378 253z"/>
<path style="fill:#9e81ee; stroke:none;" d="M407 253L408 254L407 253M430 253L431 254L430 253M369 254L370 255L369 254M95 255L96 256L95 255M213 255L213 263L214 263L213 255z"/>
<path style="fill:#572de3; stroke:none;" d="M214 255L214 263L211 263L211 269L214 269C214 273.114 212.929 279.271 215.742 282.682C217.51 284.825 224.113 286.546 225.168 282.736C225.926 279.999 221.015 273.109 221 269C224.911 268.348 225.7 266.864 226 263L221 263L221 255L214 255M327 255L327 263L324 263L324 269L327 269C327.006 278.185 328.561 287.372 340 284L334 269L339 269L339 263L334 263L334 255L327 255z"/>
<path style="fill:#9e81ee; stroke:none;" d="M334 255L334 263L335 263L334 255M358.333 255.667L358.667 256.333L358.333 255.667z"/>
<path style="fill:#f1b290; stroke:none;" d="M367 255L368 256L367 255z"/>
<path style="fill:#ffffff; stroke:none;" d="M368 262C375.716 257.735 365.489 252.572 368 262z"/>
<path style="fill:#f1b290; stroke:none;" d="M371 255L372 256L371 255M379 255L380 256L379 255z"/>
<path style="fill:#9e81ee; stroke:none;" d="M429 255L430 256L429 255z"/>
<path style="fill:#572de3; stroke:none;" d="M554 255L554 263L551 263L551 269L554 269C554.006 278.185 555.561 287.372 567 284L561 269L566 269L566 263L561 263L561 255L554 255z"/>
<path style="fill:#9e81ee; stroke:none;" d="M561 255L561 263L562 263L561 255M80 256C80.0031 259.987 79.4024 263.668 83 266L83 265L80 256z"/>
<path style="fill:#ffffff; stroke:none;" d="M81 256L81 265C88.8099 264.109 88.31 257.512 81 256z"/>
<path style="fill:#f1b290; stroke:none;" d="M84 256L85 257L84 256z"/>
<path style="fill:#9e81ee; stroke:none;" d="M85 256L86 257L85 256z"/>
<path style="fill:#f1b290; stroke:none;" d="M199 256L200 257L199 256z"/>
<path style="fill:#9e81ee; stroke:none;" d="M366.333 256.667L366.667 257.333L366.333 256.667M372 256L373 257L372 256M379 256L379 260L380 260L379 256z"/>
<path style="fill:#f1b290; stroke:none;" d="M86 257L87 258L86 257M96.3333 257.667L96.6667 258.333L96.3333 257.667z"/>
<path style="fill:#9e81ee; stroke:none;" d="M200 257L201 258L200 257M205 257L206 258L205 257z"/>
<path style="fill:#f1b290; stroke:none;" d="M372.333 257.667L372.667 258.333L372.333 257.667z"/>
<path style="fill:#9e81ee; stroke:none;" d="M403 257L404 258L403 257M416 257L417 258L416 257z"/>
<path style="fill:#f1b290; stroke:none;" d="M417 257L418 258L417 257M422 257L423 258L422 257z"/>
<path style="fill:#9e81ee; stroke:none;" d="M423.667 257.333L424.333 257.667L423.667 257.333M428 257L429 258L428 257M87 258L88 259L87 258z"/>
<path style="fill:#f1b290; stroke:none;" d="M202.667 258.333L203.333 258.667L202.667 258.333M366 258L367 259L366 258M414 258L415 259L414 258z"/>
<path style="fill:#9e81ee; stroke:none;" d="M426 258L427 259L426 258z"/>
<path style="fill:#f1b290; stroke:none;" d="M87 259L88 260L87 259z"/>
<path style="fill:#9e81ee; stroke:none;" d="M96.3333 259.667L96.6667 260.333L96.3333 259.667M366 259L367 260L366 259M372 259L373 260L372 259M402 259L403 260L402 259M412 259L413 260L412 259M358 260L359 261L358 260M371 260L372 261L371 260z"/>
<path style="fill:#f1b290; stroke:none;" d="M379 260L380 261L379 260M401 260L402 261L401 260z"/>
<path style="fill:#9e81ee; stroke:none;" d="M411 260L412 261L411 260z"/>
<path style="fill:#f1b290; stroke:none;" d="M96 261L97 262L96 261z"/>
<path style="fill:#9e81ee; stroke:none;" d="M370 261L371 262L370 261M401 261L402 262L401 261z"/>
<path style="fill:#f1b290; stroke:none;" d="M87 262L88 263L87 262M110 262L111 263L110 262z"/>
<path style="fill:#9e81ee; stroke:none;" d="M111 262L111 263L115 263L111 262z"/>
<path style="fill:#f1b290; stroke:none;" d="M115 262L116 263L115 262M136 262L137 263L136 262z"/>
<path style="fill:#9e81ee; stroke:none;" d="M137 262L137 263L141 263L137 262z"/>
<path style="fill:#f1b290; stroke:none;" d="M141.667 262.333L142.333 262.667L141.667 262.333M162 262L163 263L162 262z"/>
<path style="fill:#9e81ee; stroke:none;" d="M163 262L163 263L166 263L163 262z"/>
<path style="fill:#f1b290; stroke:none;" d="M166 262L167 263L166 262M241 262L242 263L241 262z"/>
<path style="fill:#9e81ee; stroke:none;" d="M242 262L242 263L246 263L242 262M256 262L256 263L260 263L256 262z"/>
<path style="fill:#f1b290; stroke:none;" d="M260 262L261 263L260 262M279 262L280 263L279 262z"/>
<path style="fill:#9e81ee; stroke:none;" d="M280 262L280 263L284 263L280 262z"/>
<path style="fill:#f1b290; stroke:none;" d="M284 262L285 263L284 262M309 262L310 263L309 262z"/>
<path style="fill:#9e81ee; stroke:none;" d="M310 262L310 263L313 263L310 262z"/>
<path style="fill:#f1b290; stroke:none;" d="M313 262L314 263L313 262z"/>
<path style="fill:#9e81ee; stroke:none;" d="M359 262L360 263L359 262M368 262L369 263L368 262M410 262L411 263L410 262z"/>
<path style="fill:#f1b290; stroke:none;" d="M442 262L443 263L442 262z"/>
<path style="fill:#9e81ee; stroke:none;" d="M443 262L443 263L449 263L443 262M475 262L475 263L479 263L475 262z"/>
<path style="fill:#f1b290; stroke:none;" d="M479 262L480 263L479 262M497 262L498 263L497 262z"/>
<path style="fill:#9e81ee; stroke:none;" d="M498 262L498 263L503 263L498 262z"/>
<path style="fill:#f1b290; stroke:none;" d="M503 262L504 263L503 262M576 262L577 263L576 262z"/>
<path style="fill:#9e81ee; stroke:none;" d="M577 262L577 263L581 263L577 262z"/>
<path style="fill:#f1b290; stroke:none;" d="M581 262L582 263L581 262M611 262L612 263L611 262z"/>
<path style="fill:#9e81ee; stroke:none;" d="M612 262L612 263L615 263L612 262z"/>
<path style="fill:#f1b290; stroke:none;" d="M615 262L616 263L615 262z"/>
<path style="fill:#9e81ee; stroke:none;" d="M635 262L635 263L640 263L635 262z"/>
<path style="fill:#f1b290; stroke:none;" d="M640 262L641 263L640 262z"/>
<path style="fill:#9e81ee; stroke:none;" d="M108 263L109 264L108 263z"/>
<path style="fill:#572de3; stroke:none;" d="M124 279C117.789 277.667 113.435 280.765 109 275L125 275C124.315 261.833 104.649 257.664 102.232 272C100.08 284.769 118.547 290.053 124 279z"/>
<path style="fill:#9e81ee; stroke:none;" d="M118 263L119 264L118 263M134 263L135 264L134 263z"/>
<path style="fill:#572de3; stroke:none;" d="M146 284L144 279C133.946 279.27 133.946 268.73 144 269L146 264C124.251 257.571 122.619 289.567 146 284z"/>
<path style="fill:#f1b290; stroke:none;" d="M145 263L146 264L145 263z"/>
<path style="fill:#572de3; stroke:none;" d="M150 263L150 285L157 285C157 278.152 156.445 268.441 166 270L169 264C164.261 262.616 161.242 263.666 157 266C156.204 262.284 153.363 263 150 263z"/>
<path style="fill:#9e81ee; stroke:none;" d="M157 263L159 266L157 263M160 263L161 264L160 263M168 263L169 264L168 263z"/>
<path style="fill:#572de3; stroke:none;" d="M171 263C171 268.453 169.665 276.126 172.858 280.891C176.604 286.482 189.322 287.107 192.821 280.891C195.469 276.187 194 268.238 194 263L187 263C187 266.922 188.603 275.646 184.686 278.11C177.383 282.703 178 266.123 178 263L171 263z"/>
<path style="fill:#9e81ee; stroke:none;" d="M178 263L178 276L179 276L178 263M194 263L194 278L195 278L194 263M199 263L199 285L200 285L199 263z"/>
<path style="fill:#572de3; stroke:none;" d="M200 263L200 285L207 285L207 263L200 263z"/>
<path style="fill:#9e81ee; stroke:none;" d="M210 263L210 269L211 269L210 263M229 263L229 285L230 285L229 263z"/>
<path style="fill:#572de3; stroke:none;" d="M230 263L230 285L237 285C237 281.341 235.374 272.004 239.302 269.921C245.823 266.464 245 282.213 245 285L252 285C252 281.33 250.375 272.023 254.299 269.921C260.62 266.537 260 282.269 260 285L267 285C267 279.415 268.434 271.079 265.062 266.228C261.409 260.973 242.33 262.742 237 265L230 263z"/>
<path style="fill:#9e81ee; stroke:none;" d="M239 263L240 264L239 263M247 263L248 264L247 263M254 263L255 264L254 263M262 263L263 264L262 263z"/>
<path style="fill:#f1b290; stroke:none;" d="M276 263L277 264L276 263z"/>
<path style="fill:#9e81ee; stroke:none;" d="M277 263L278 264L277 263z"/>
<path style="fill:#572de3; stroke:none;" d="M293 280C287.325 277.402 281.405 281.467 278 275L294 275C291.516 263.163 273.573 256.62 270.573 272.001C267.968 285.361 285.995 288.616 293 280z"/>
<path style="fill:#9e81ee; stroke:none;" d="M287 263L288 264L287 263M297 263L297 285L298 285L297 263z"/>
<path style="fill:#572de3; stroke:none;" d="M298 263L298 285L305 285C305 281.078 303.397 272.354 307.314 269.89C314.617 265.297 314 281.877 314 285L321 285C321 273.36 321.212 258.131 305 265L298 263z"/>
<path style="fill:#9e81ee; stroke:none;" d="M307 263L308 264L307 263z"/>
<path style="fill:#f1b290; stroke:none;" d="M316 263L317 264L316 263M339 263L339 269L340 269L339 263z"/>
<path style="fill:#9e81ee; stroke:none;" d="M377 263L378 264L377 263z"/>
<path style="fill:#f1b290; stroke:none;" d="M400 263L401 264L400 263M439 263L440 264L439 263z"/>
<path style="fill:#9e81ee; stroke:none;" d="M440 263L441 264L440 263z"/>
<path style="fill:#572de3; stroke:none;" d="M441.001 263.573C424.771 268.252 436.038 289.104 450.996 284.347C466.54 279.405 455.296 259.451 441.001 263.573z"/>
<path style="fill:#9e81ee; stroke:none;" d="M451 263L452 264L451 263M462 263L462 285L463 285L462 263z"/>
<path style="fill:#572de3; stroke:none;" d="M463 263L463 285L470 285C470 281.299 468.302 268.305 474.935 269.176C480.746 269.939 479 281.054 479 285L486 285C486 273.331 486.324 258.083 470 265L463 263z"/>
<path style="fill:#f1b290; stroke:none;" d="M472 263L473 264L472 263z"/>
<path style="fill:#9e81ee; stroke:none;" d="M481 263L482 264L481 263z"/>
<path style="fill:#f1b290; stroke:none;" d="M494 263L495 264L494 263z"/>
<path style="fill:#9e81ee; stroke:none;" d="M495 263L496 264L495 263z"/>
<path style="fill:#572de3; stroke:none;" d="M500 280L492 278L490 283C503.469 289.482 515.019 275.81 498 270L498 268C502.196 267.711 505.242 268.379 507 264C502.166 262.571 488.891 262.13 491.658 270.958C492.923 274.992 497.954 276.392 500 280z"/>
<path style="fill:#9e81ee; stroke:none;" d="M506 263L507 264L506 263M511 263L511 277L512 277L511 263z"/>
<path style="fill:#572de3; stroke:none;" d="M512 263C512 268.238 510.531 276.187 513.179 280.891C516.329 286.487 529.183 286.921 532.911 281.721C536.406 276.845 535 268.652 535 263L528 263C528 266.511 529.475 281.462 522.133 278.593C517.25 276.684 519 267.086 519 263L512 263z"/>
<path style="fill:#f1b290; stroke:none;" d="M527 263L527 274L528 274L527 263M535 263L535 275L536 275L535 263M566 263L566 269L567 269L566 263z"/>
<path style="fill:#9e81ee; stroke:none;" d="M574 263L575 264L574 263z"/>
<path style="fill:#572de3; stroke:none;" d="M587 283L594 285L594 263L587 265C564.125 256.663 563.971 291.393 587 283z"/>
<path style="fill:#9e81ee; stroke:none;" d="M583 263L584 264L583 263M586 263L585 265L587 265L586 263z"/>
<path style="fill:#572de3; stroke:none;" d="M599 263L599 285L606 285C606 281.975 605.482 265.091 612.686 269.752C616.597 272.282 615 281.037 615 285L622 285C622 272.66 622.587 258.955 606 265L599 263z"/>
<path style="fill:#9e81ee; stroke:none;" d="M606.333 263.667L606.667 264.333L606.333 263.667M609 263L610 264L609 263M617 263L618 264L617 263z"/>
<path style="fill:#f1b290; stroke:none;" d="M618 263L619 264L618 263M632 263L633 264L632 263z"/>
<path style="fill:#572de3; stroke:none;" d="M645 284L643 279C632.685 279.767 632.685 268.233 643 269L645 264L646 264L654.191 282L648 296C661.104 295.99 669.634 274.686 673 263C664.807 263.029 663.006 266.779 660 274C657.999 270.966 656.023 265.203 652.61 263.603C650.097 262.426 646.676 263.151 644 263.151C639.769 263.151 634.826 262.188 631.105 264.742C616.765 274.587 633.266 286.794 645 284z"/>
<path style="fill:#9e81ee; stroke:none;" d="M643 263L644 264L643 263z"/>
<path style="fill:#f1b290; stroke:none;" d="M664 263L665 264L664 263z"/>
<path style="fill:#9e81ee; stroke:none;" d="M673 263L674 264L673 263z"/>
<path style="fill:#f1b290; stroke:none;" d="M85 264L86 265L85 264z"/>
<path style="fill:#9e81ee; stroke:none;" d="M86 264L87 265L86 264M95 264L96 265L95 264M106 264L107 265L106 264M120 264L121 265L120 264M132 264L133 265L132 264M146 264L147 265L146 264M159 264L160 265L159 264M238 264L239 265L238 264M249 264L250 265L249 264z"/>
<path style="fill:#f1b290; stroke:none;" d="M252 264L253 265L252 264z"/>
<path style="fill:#9e81ee; stroke:none;" d="M264 264L265 265L264 264M275 264L276 265L275 264z"/>
<path style="fill:#f1b290; stroke:none;" d="M289 264L290 265L289 264z"/>
<path style="fill:#9e81ee; stroke:none;" d="M306 264L307 265L306 264M360 264L361 265L360 264z"/>
<path style="fill:#f1b290; stroke:none;" d="M376 264L377 265L376 264z"/>
<path style="fill:#9e81ee; stroke:none;" d="M400 264L400 270L401 270L400 264M409 264L410 265L409 264z"/>
<path style="fill:#f1b290; stroke:none;" d="M437 264L438 265L437 264z"/>
<path style="fill:#9e81ee; stroke:none;" d="M453 264L454 265L453 264M471 264L472 265L471 264z"/>
<path style="fill:#f1b290; stroke:none;" d="M483 264L484 265L483 264z"/>
<path style="fill:#9e81ee; stroke:none;" d="M507 264L508 265L507 264z"/>
<path style="fill:#f1b290; stroke:none;" d="M572 264L573 265L572 264M607 264L608 265L607 264z"/>
<path style="fill:#9e81ee; stroke:none;" d="M619 264L620 265L619 264z"/>
<path style="fill:#f1b290; stroke:none;" d="M645 264L646 265L645 264z"/>
<path style="fill:#9e81ee; stroke:none;" d="M654 264L655 265L654 264M664 264L665 265L664 264M105 265L106 266L105 265z"/>
<path style="fill:#f1b290; stroke:none;" d="M122 265L123 266L122 265z"/>
<path style="fill:#9e81ee; stroke:none;" d="M131 265L132 266L131 265z"/>
<path style="fill:#f1b290; stroke:none;" d="M146 265L147 266L146 265z"/>
<path style="fill:#9e81ee; stroke:none;" d="M168 265L169 266L168 265z"/>
<path style="fill:#f1b290; stroke:none;" d="M250.667 265.333L251.333 265.667L250.667 265.333M265 265L266 266L265 265z"/>
<path style="fill:#9e81ee; stroke:none;" d="M290 265L291 266L290 265z"/>
<path style="fill:#f1b290; stroke:none;" d="M375 265L376 266L375 265M409 265L410 266L409 265z"/>
<path style="fill:#9e81ee; stroke:none;" d="M436 265L437 266L436 265M454 265L455 266L454 265z"/>
<path style="fill:#f1b290; stroke:none;" d="M484 265L485 266L484 265z"/>
<path style="fill:#9e81ee; stroke:none;" d="M492 265L493 266L492 265M571 265L572 266L571 265M620 265L621 266L620 265z"/>
<path style="fill:#f1b290; stroke:none;" d="M629 265L630 266L629 265z"/>
<path style="fill:#9e81ee; stroke:none;" d="M644 265L645 266L644 265M646 265L647 266L646 265M672 265L673 266L672 265M94 266L95 267L94 266M104 266L105 267L104 266M130 266L131 267L130 266M145 266L146 267L145 266M291 266L292 267L291 266z"/>
<path style="fill:#f1b290; stroke:none;" d="M360 266L361 267L360 266z"/>
<path style="fill:#9e81ee; stroke:none;" d="M373.333 266.667L373.667 267.333L373.333 266.667M435 266L436 267L435 266M491 266L492 267L491 266M506 266L507 267L506 266M621 266L622 267L621 266z"/>
<path style="fill:#f1b290; stroke:none;" d="M628 266L629 267L628 266M644 266L645 267L644 266z"/>
<path style="fill:#9e81ee; stroke:none;" d="M655 266L656 267L655 266M663 266L664 267L663 266M93 267L94 268L93 267M103 267L104 268L103 267M112 267L113 268L112 267z"/>
<path style="fill:#f1b290; stroke:none;" d="M113 267L114 268L113 267z"/>
<path style="fill:#9e81ee; stroke:none;" d="M114.667 267.333L115.333 267.667L114.667 267.333M123 267L124 268L123 267M129 267L130 268L129 267z"/>
<path style="fill:#f1b290; stroke:none;" d="M145 267L146 268L145 267z"/>
<path style="fill:#9e81ee; stroke:none;" d="M167 267L168 268L167 267z"/>
<path style="fill:#f1b290; stroke:none;" d="M266 267L267 268L266 267z"/>
<path style="fill:#9e81ee; stroke:none;" d="M280.667 267.333L281.333 267.667L280.667 267.333z"/>
<path style="fill:#f1b290; stroke:none;" d="M282 267L283 268L282 267z"/>
<path style="fill:#9e81ee; stroke:none;" d="M283 267L284 268L283 267z"/>
<path style="fill:#f1b290; stroke:none;" d="M292 267L293 268L292 267M320 267L321 268L320 267z"/>
<path style="fill:#9e81ee; stroke:none;" d="M359 267L360 268L359 267z"/>
<path style="fill:#f1b290; stroke:none;" d="M382 267L383 268L382 267z"/>
<path style="fill:#9e81ee; stroke:none;" d="M434 267L435 268L434 267M456 267L457 268L456 267M485 267L486 268L485 267M500 267L501 268L500 267M570 267L571 268L570 267M643 267L644 268L643 267M647 267L648 268L647 267M671 267L672 268L671 267M92 268L93 269L92 268M110 268L111 269L110 268z"/>
<path style="fill:#ffffff; stroke:none;" d="M110 271L117 271C114.877 267.736 112.123 267.736 110 271z"/>
<path style="fill:#f1b290; stroke:none;" d="M116 268L117 269L116 268M124 268L125 269L124 268M128 268L129 269L128 268z"/>
<path style="fill:#9e81ee; stroke:none;" d="M140.667 268.333L141.333 268.667L140.667 268.333M144 268L145 269L144 268M225 268L226 269L225 268M239 268L239 269L242 269L239 268M254 268L254 269L257 269L254 268M266.333 268.667L266.667 269.333L266.333 268.667M271 268L272 269L271 268z"/>
<path style="fill:#ffffff; stroke:none;" d="M279 268L279 271L286 271L279 268z"/>
<path style="fill:#9e81ee; stroke:none;" d="M285 268L286 269L285 268M292 268L293 269L292 268M308 268L309 269L308 268z"/>
<path style="fill:#f1b290; stroke:none;" d="M309 268L310 269L309 268z"/>
<path style="fill:#9e81ee; stroke:none;" d="M310 268L311 269L310 268M320 268L321 269L320 268z"/>
<path style="fill:#f1b290; stroke:none;" d="M357 268L358 269L357 268z"/>
<path style="fill:#9e81ee; stroke:none;" d="M374 268L375 269L374 268M381 268L382 269L381 268z"/>
<path style="fill:#f1b290; stroke:none;" d="M409 268L410 269L409 268M457 268L458 269L457 268z"/>
<path style="fill:#9e81ee; stroke:none;" d="M473 268L474 269L473 268z"/>
<path style="fill:#f1b290; stroke:none;" d="M474 268L475 269L474 268z"/>
<path style="fill:#9e81ee; stroke:none;" d="M475 268L476 269L475 268z"/>
<path style="fill:#f1b290; stroke:none;" d="M498 268L499 269L498 268M503 268L504 269L503 268z"/>
<path style="fill:#9e81ee; stroke:none;" d="M504.667 268.333L505.333 268.667L504.667 268.333z"/>
<path style="fill:#f1b290; stroke:none;" d="M569 268L570 269L569 268z"/>
<path style="fill:#9e81ee; stroke:none;" d="M609.667 268.333L610.333 268.667L609.667 268.333z"/>
<path style="fill:#f1b290; stroke:none;" d="M611 268L612 269L611 268z"/>
<path style="fill:#9e81ee; stroke:none;" d="M612 268L613 269L612 268M622 268L622 285L623 285L622 268M627 268L628 269L627 268M638 268L638 269L641 269L638 268z"/>
<path style="fill:#f1b290; stroke:none;" d="M643 268L644 269L643 268z"/>
<path style="fill:#9e81ee; stroke:none;" d="M656 268L657 269L656 268M662 268L663 269L662 268z"/>
<path style="fill:#f1b290; stroke:none;" d="M91 269L92 270L91 269z"/>
<path style="fill:#9e81ee; stroke:none;" d="M102 269L103 270L102 269M117 269L118 270L117 269M124 269L125 270L124 269M128 269L129 270L128 269M137 269L138 270L137 269z"/>
<path style="fill:#f1b290; stroke:none;" d="M143.667 269.333L144.333 269.667L143.667 269.333z"/>
<path style="fill:#9e81ee; stroke:none;" d="M160 269L161 270L160 269z"/>
<path style="fill:#f1b290; stroke:none;" d="M164 269L165 270L164 269z"/>
<path style="fill:#9e81ee; stroke:none;" d="M166 269L167 270L166 269M213 269L213 277L214 277L213 269M278 269L279 270L278 269M306 269L307 270L306 269M334 269L334 276L335 276L334 269M356 269L357 270L356 269z"/>
<path style="fill:#f1b290; stroke:none;" d="M375 269L376 270L375 269z"/>
<path style="fill:#9e81ee; stroke:none;" d="M380 269L381 270L380 269M409.333 269.667L409.667 270.333L409.333 269.667M433 269L434 270L433 269z"/>
<path style="fill:#f1b290; stroke:none;" d="M443 269L444 270L443 269z"/>
<path style="fill:#ffffff; stroke:none;" d="M444.224 269.801C439.228 271.646 441.497 279.957 446.857 278.288C451.942 276.704 449.595 267.817 444.224 269.801z"/>
<path style="fill:#9e81ee; stroke:none;" d="M448 269L449 270L448 269M471 269L472 270L471 269M477 269L478 270L477 269M561 269L561 276L562 276L561 269z"/>
<path style="fill:#f1b290; stroke:none;" d="M579 269L580 270L579 269z"/>
<path style="fill:#ffffff; stroke:none;" d="M580.143 269.851C575.021 271.529 577.484 280.119 582.857 278.199C587.945 276.381 585.486 268.101 580.143 269.851z"/>
<path style="fill:#f1b290; stroke:none;" d="M583 269L584 270L583 269M608 269L609 270L608 269M626 269L627 270L626 269M636 269L637 270L636 269z"/>
<path style="fill:#9e81ee; stroke:none;" d="M642 269L643 270L642 269M648 269L649 270L648 269z"/>
<path style="fill:#f1b290; stroke:none;" d="M670 269L671 270L670 269z"/>
<path style="fill:#9e81ee; stroke:none;" d="M89 270L90 271L89 270M109 270L110 271L109 270z"/>
<path style="fill:#f1b290; stroke:none;" d="M117 270L118 271L117 270z"/>
<path style="fill:#9e81ee; stroke:none;" d="M136 270L137 271L136 270z"/>
<path style="fill:#f1b290; stroke:none;" d="M237 270L238 271L237 270M243 270L244 271L243 270z"/>
<path style="fill:#9e81ee; stroke:none;" d="M252 270L253 271L252 270z"/>
<path style="fill:#f1b290; stroke:none;" d="M258 270L259 271L258 270z"/>
<path style="fill:#9e81ee; stroke:none;" d="M270.333 270.667L270.667 271.333L270.333 270.667z"/>
<path style="fill:#f1b290; stroke:none;" d="M278 270L279 271L278 270z"/>
<path style="fill:#9e81ee; stroke:none;" d="M286 270L287 271L286 270M293 270L293 273L294 273L293 270M305 270L306 271L305 270M355 270L356 271L355 270M365 270L366 271L365 270z"/>
<path style="fill:#f1b290; stroke:none;" d="M376 270L377 271L376 270z"/>
<path style="fill:#9e81ee; stroke:none;" d="M379 270L380 271L379 270z"/>
<path style="fill:#f1b290; stroke:none;" d="M400 270L401 271L400 270z"/>
<path style="fill:#9e81ee; stroke:none;" d="M449 270L450 271L449 270z"/>
<path style="fill:#f1b290; stroke:none;" d="M458 270L459 271L458 270z"/>
<path style="fill:#9e81ee; stroke:none;" d="M499 270L500 271L499 270M577 270L578 271L577 270M607 270L608 271L607 270M614 270L615 271L614 270M626 270L627 271L626 270M657 270L658 271L657 270M661 270L662 271L661 270M80 271L80 285L81 285L80 271z"/>
<path style="fill:#f1b290; stroke:none;" d="M90 271L91 272L90 271M101.333 271.667L101.667 272.333L101.333 271.667z"/>
<path style="fill:#9e81ee; stroke:none;" d="M127 271L127 277L128 277L127 271z"/>
<path style="fill:#f1b290; stroke:none;" d="M158 271L159 272L158 271z"/>
<path style="fill:#9e81ee; stroke:none;" d="M354 271L355 272L354 271z"/>
<path style="fill:#ffffff; stroke:none;" d="M371 276C363.82 266.601 360.469 280.204 371 276z"/>
<path style="fill:#9e81ee; stroke:none;" d="M377 271L378 272L377 271z"/>
<path style="fill:#f1b290; stroke:none;" d="M432.333 271.667L432.667 272.333L432.333 271.667M441 271L442 272L441 271z"/>
<path style="fill:#9e81ee; stroke:none;" d="M458.333 271.667L458.667 272.333L458.333 271.667M470 271L471 272L470 271M478 271L478 285L479 285L478 271M502 271L503 272L502 271z"/>
<path style="fill:#f1b290; stroke:none;" d="M568 271L569 272L568 271z"/>
<path style="fill:#9e81ee; stroke:none;" d="M634 271L635 272L634 271z"/>
<path style="fill:#f1b290; stroke:none;" d="M649 271L650 272L649 271M658 271L659 272L658 271M669 271L670 272L669 271M125 272L125 275L126 275L125 272z"/>
<path style="fill:#9e81ee; stroke:none;" d="M135 272L135 276L136 276L135 272M244 272L244 285L245 285L244 272M313 272L313 285L314 285L313 272M387 272L388 273L387 272M410 272L411 273L410 272M450 272L451 273L450 272z"/>
<path style="fill:#f1b290; stroke:none;" d="M491 272L492 273L491 272z"/>
<path style="fill:#9e81ee; stroke:none;" d="M504 272L505 273L504 272M568 272L568 276L569 276L568 272M576 272L576 276L577 276L576 272M586 272L586 276L587 276L586 272M606 272L606 285L607 285L606 272M660 272L661 273L660 272M82 273L83 274L82 273M101.333 273.667L101.667 274.333L101.333 273.667M157 273L157 285L158 285L157 273M259 273L259 285L260 285L259 273M353.333 273.667L353.667 274.333L353.333 273.667M362 273L363 274L362 273M386 273L387 274L386 273M401 273L402 274L401 273z"/>
<path style="fill:#f1b290; stroke:none;" d="M411 273L412 274L411 273z"/>
<path style="fill:#9e81ee; stroke:none;" d="M432 273L432 276L433 276L432 273M440.333 273.667L440.667 274.333L440.333 273.667z"/>
<path style="fill:#f1b290; stroke:none;" d="M450.333 273.667L450.667 274.333L450.333 273.667z"/>
<path style="fill:#9e81ee; stroke:none;" d="M492 273L493 274L492 273z"/>
<path style="fill:#f1b290; stroke:none;" d="M625.333 273.667L625.667 274.333L625.333 273.667M650 273L651 274L650 273M659 273L660 274L659 273M668 273L669 274L668 273z"/>
<path style="fill:#9e81ee; stroke:none;" d="M92 274L93 275L92 274z"/>
<path style="fill:#f1b290; stroke:none;" d="M362.333 274.667L362.667 275.333L362.333 274.667z"/>
<path style="fill:#9e81ee; stroke:none;" d="M385 274L386 275L385 274z"/>
<path style="fill:#f1b290; stroke:none;" d="M493 274L494 275L493 274z"/>
<path style="fill:#9e81ee; stroke:none;" d="M527 274L527 277L528 277L527 274M651 274L652 275L651 274M667 274L668 275L667 274M93 275L94 276L93 275z"/>
<path style="fill:#f1b290; stroke:none;" d="M101.333 275.667L101.667 276.333L101.333 275.667z"/>
<path style="fill:#9e81ee; stroke:none;" d="M109.333 275.667L109.667 276.333L109.333 275.667z"/>
<path style="fill:#f1b290; stroke:none;" d="M384 275L385 276L384 275z"/>
<path style="fill:#9e81ee; stroke:none;" d="M402 275L403 276L402 275M413 275L414 276L413 275z"/>
<path style="fill:#f1b290; stroke:none;" d="M427 275L428 276L427 275z"/>
<path style="fill:#9e81ee; stroke:none;" d="M450 275L451 276L450 275M458.333 275.667L458.667 276.333L458.333 275.667M495 275L496 276L495 275M507 275L508 276L507 275z"/>
<path style="fill:#f1b290; stroke:none;" d="M667 275L668 276L667 275z"/>
<path style="fill:#9e81ee; stroke:none;" d="M84 276L85 277L84 276z"/>
<path style="fill:#f1b290; stroke:none;" d="M94 276L95 277L94 276M186 276L187 277L186 276M221 276L222 277L221 276z"/>
<path style="fill:#9e81ee; stroke:none;" d="M270.333 276.667L270.667 277.333L270.333 276.667M362 276L363 277L362 276M370 276L371 277L370 276z"/>
<path style="fill:#f1b290; stroke:none;" d="M383 276L384 277L383 276M415 276L416 277L415 276M425 276L426 277L425 276M432 276L433 277L432 276z"/>
<path style="fill:#9e81ee; stroke:none;" d="M497 276L498 277L497 276z"/>
<path style="fill:#f1b290; stroke:none;" d="M519 276L520 277L519 276M568 276L569 277L568 276z"/>
<path style="fill:#9e81ee; stroke:none;" d="M634 276L635 277L634 276M652 276L653 277L652 276M666 276L667 277L666 276M85 277L86 278L85 277z"/>
<path style="fill:#f1b290; stroke:none;" d="M95 277L96 278L95 277z"/>
<path style="fill:#9e81ee; stroke:none;" d="M119 277L120 278L119 277z"/>
<path style="fill:#f1b290; stroke:none;" d="M120 277L121 278L120 277z"/>
<path style="fill:#9e81ee; stroke:none;" d="M136 277L137 278L136 277z"/>
<path style="fill:#f1b290; stroke:none;" d="M179 277L180 278L179 277z"/>
<path style="fill:#9e81ee; stroke:none;" d="M186 277L187 278L186 277z"/>
<path style="fill:#f1b290; stroke:none;" d="M213.333 277.667L213.667 278.333L213.333 277.667z"/>
<path style="fill:#9e81ee; stroke:none;" d="M221 277L222 278L221 277M278 277L279 278L278 277M287.667 277.333L288.333 277.667L287.667 277.333M353.333 277.667L353.667 278.333L353.333 277.667M363.667 277.333L364.333 277.667L363.667 277.333z"/>
<path style="fill:#f1b290; stroke:none;" d="M367 277L368 278L367 277z"/>
<path style="fill:#9e81ee; stroke:none;" d="M368 277L369 278L368 277z"/>
<path style="fill:#f1b290; stroke:none;" d="M403 277L404 278L403 277z"/>
<path style="fill:#9e81ee; stroke:none;" d="M418.667 277.333L419.333 277.667L418.667 277.333z"/>
<path style="fill:#f1b290; stroke:none;" d="M420 277L421 278L420 277z"/>
<path style="fill:#9e81ee; stroke:none;" d="M421 277L421 278L424 278L421 277M428 277L429 278L428 277M449 277L450 278L449 277z"/>
<path style="fill:#f1b290; stroke:none;" d="M458 277L459 278L458 277M492 277L493 278L492 277z"/>
<path style="fill:#9e81ee; stroke:none;" d="M499 277L500 278L499 277z"/>
<path style="fill:#f1b290; stroke:none;" d="M511 277L512 278L511 277z"/>
<path style="fill:#9e81ee; stroke:none;" d="M519 277L520 278L519 277M577 277L578 278L577 277M585 277L586 278L585 277M626 277L627 278L626 277M102 278L103 279L102 278z"/>
<path style="fill:#f1b290; stroke:none;" d="M122 278L123 279L122 278z"/>
<path style="fill:#9e81ee; stroke:none;" d="M137 278L138 279L137 278z"/>
<path style="fill:#f1b290; stroke:none;" d="M143 278L144 279L143 278z"/>
<path style="fill:#9e81ee; stroke:none;" d="M171.333 278.667L171.667 279.333L171.333 278.667M185 278L186 279L185 278z"/>
<path style="fill:#f1b290; stroke:none;" d="M194 278L195 279L194 278z"/>
<path style="fill:#9e81ee; stroke:none;" d="M222 278L223 279L222 278z"/>
<path style="fill:#f1b290; stroke:none;" d="M223 278L224 279L223 278z"/>
<path style="fill:#9e81ee; stroke:none;" d="M224 278L225 279L224 278M279 278L280 279L279 278M286 278L287 279L286 278M290 278L291 279L290 278M327 278L327 281L328 281L327 278M335 278L336 279L335 278z"/>
<path style="fill:#f1b290; stroke:none;" d="M336 278L337 279L336 278z"/>
<path style="fill:#9e81ee; stroke:none;" d="M337 278L339 280L337 278z"/>
<path style="fill:#f1b290; stroke:none;" d="M338 278L339 279L338 278z"/>
<path style="fill:#9e81ee; stroke:none;" d="M404 278L405 279L404 278M433 278L434 279L433 278z"/>
<path style="fill:#f1b290; stroke:none;" d="M443 278L444 279L443 278z"/>
<path style="fill:#9e81ee; stroke:none;" d="M448 278L449 279L448 278z"/>
<path style="fill:#f1b290; stroke:none;" d="M491 278L492 279L491 278z"/>
<path style="fill:#9e81ee; stroke:none;" d="M493 278L494 279L493 278M520 278L521 279L520 278M526 278L527 279L526 278M534.333 278.667L534.667 279.333L534.333 278.667M554 278L554 281L555 281L554 278M562 278L563 279L562 278z"/>
<path style="fill:#f1b290; stroke:none;" d="M563 278L564 279L563 278z"/>
<path style="fill:#9e81ee; stroke:none;" d="M564 278L566 280L564 278z"/>
<path style="fill:#f1b290; stroke:none;" d="M565 278L566 279L565 278z"/>
<path style="fill:#9e81ee; stroke:none;" d="M578 278L579 279L578 278z"/>
<path style="fill:#f1b290; stroke:none;" d="M583 278L584 279L583 278M626 278L627 279L626 278M636 278L637 279L636 278M642 278L643 279L642 278z"/>
<path style="fill:#9e81ee; stroke:none;" d="M653 278L654 279L653 278M665 278L666 279L665 278M112 279L112 280L116 280L112 279z"/>
<path style="fill:#f1b290; stroke:none;" d="M124 279L125 280L124 279M128 279L129 280L128 279z"/>
<path style="fill:#9e81ee; stroke:none;" d="M140.667 279.333L141.333 279.667L140.667 279.333M144 279L145 280L144 279M181 279L181 280L184 280L181 279z"/>
<path style="fill:#f1b290; stroke:none;" d="M225 279L226 280L225 279z"/>
<path style="fill:#9e81ee; stroke:none;" d="M271 279L272 280L271 279M281 279L281 280L285 280L281 279M292 279L293 280L292 279z"/>
<path style="fill:#f1b290; stroke:none;" d="M353 279L354 280L353 279z"/>
<path style="fill:#9e81ee; stroke:none;" d="M405 279L406 280L405 279M429 279L430 280L429 279M457 279L458 280L457 279M495 279L496 280L495 279z"/>
<path style="fill:#f1b290; stroke:none;" d="M496 279L497 280L496 279z"/>
<path style="fill:#9e81ee; stroke:none;" d="M499 279L500 280L499 279M522 279L522 280L525 280L522 279M569 279L570 280L569 279M627 279L628 280L627 279M638 279L638 280L641 280L638 279z"/>
<path style="fill:#f1b290; stroke:none;" d="M643 279L644 280L643 279M87 280L88 281L87 280z"/>
<path style="fill:#9e81ee; stroke:none;" d="M97 280L98 281L97 280M103 280L104 281L103 280M124 280L125 281L124 280M129 280L130 281L129 280z"/>
<path style="fill:#f1b290; stroke:none;" d="M145 280L146 281L145 280z"/>
<path style="fill:#9e81ee; stroke:none;" d="M193 280L194 281L193 280M225 280L226 281L225 280M354 280L355 281L354 280M406 280L407 281L406 280M434 280L435 281L434 280M490 280L491 281L490 280M507 280L508 281L507 280M512 280L513 281L512 280z"/>
<path style="fill:#f1b290; stroke:none;" d="M534 280L535 281L534 280z"/>
<path style="fill:#9e81ee; stroke:none;" d="M643 280L644 281L643 280z"/>
<path style="fill:#f1b290; stroke:none;" d="M654 280L655 281L654 280z"/>
<path style="fill:#9e81ee; stroke:none;" d="M664 280L665 281L664 280M88 281L89 282L88 281M98 281L99 282L98 281M104 281L105 282L104 281M123 281L124 282L123 281M130 281L131 282L130 281M145 281L146 282L145 281M172 281L173 282L172 281M214 281L215 282L214 281z"/>
<path style="fill:#f1b290; stroke:none;" d="M292 281L293 282L292 281M339 281L340 282L339 281z"/>
<path style="fill:#9e81ee; stroke:none;" d="M376 281L377 282L376 281M407 281L408 282L407 281M430.333 281.667L430.667 282.333L430.333 281.667M435 281L436 282L435 281z"/>
<path style="fill:#f1b290; stroke:none;" d="M507 281L508 282L507 281z"/>
<path style="fill:#9e81ee; stroke:none;" d="M533 281L534 282L533 281z"/>
<path style="fill:#f1b290; stroke:none;" d="M566 281L567 282L566 281M628 281L629 282L628 281M644 281L645 282L644 281z"/>
<path style="fill:#9e81ee; stroke:none;" d="M89 282L90 283L89 282z"/>
<path style="fill:#f1b290; stroke:none;" d="M99 282L100 283L99 282z"/>
<path style="fill:#9e81ee; stroke:none;" d="M105 282L106 283L105 282M122 282L123 283L122 282M131 282L132 283L131 282z"/>
<path style="fill:#f1b290; stroke:none;" d="M146 282L147 283L146 282z"/>
<path style="fill:#9e81ee; stroke:none;" d="M173 282L174 283L173 282z"/>
<path style="fill:#f1b290; stroke:none;" d="M192 282L193 283L192 282M273 282L274 283L273 282M291 282L292 283L291 282z"/>
<path style="fill:#9e81ee; stroke:none;" d="M328 282L329 283L328 282M339 282L340 283L339 282z"/>
<path style="fill:#f1b290; stroke:none;" d="M355 282L356 283L355 282M377 282L378 283L377 282z"/>
<path style="fill:#9e81ee; stroke:none;" d="M436 282L437 283L436 282M489 282L490 283L489 282M506 282L507 283L506 282z"/>
<path style="fill:#f1b290; stroke:none;" d="M513 282L514 283L513 282z"/>
<path style="fill:#9e81ee; stroke:none;" d="M555 282L556 283L555 282M566 282L567 283L566 282M571 282L572 283L571 282z"/>
<path style="fill:#f1b290; stroke:none;" d="M629 282L630 283L629 282z"/>
<path style="fill:#9e81ee; stroke:none;" d="M644 282L645 283L644 282M663 282L664 283L663 282z"/>
<path style="fill:#f1b290; stroke:none;" d="M100 283L101 284L100 283z"/>
<path style="fill:#9e81ee; stroke:none;" d="M106 283L107 284L106 283M121 283L122 284L121 283M132 283L133 284L132 283M146 283L147 284L146 283M174 283L175 284L174 283M191 283L192 284L191 283z"/>
<path style="fill:#f1b290; stroke:none;" d="M215 283L216 284L215 283z"/>
<path style="fill:#9e81ee; stroke:none;" d="M226 283L225 285L226 283M275 283L276 284L275 283M329 283L330 284L329 283M357 283L358 284L357 283M373 283L374 284L373 283z"/>
<path style="fill:#f1b290; stroke:none;" d="M378 283L379 284L378 283z"/>
<path style="fill:#9e81ee; stroke:none;" d="M410 283L411 284L410 283z"/>
<path style="fill:#f1b290; stroke:none;" d="M429 283L430 284L429 283M437 283L438 284L437 283z"/>
<path style="fill:#9e81ee; stroke:none;" d="M453 283L454 284L453 283M490 283L491 284L490 283M505 283L506 284L505 283z"/>
<path style="fill:#f1b290; stroke:none;" d="M514 283L515 284L514 283z"/>
<path style="fill:#9e81ee; stroke:none;" d="M556 283L557 284L556 283z"/>
<path style="fill:#f1b290; stroke:none;" d="M572 283L573 284L572 283z"/>
<path style="fill:#9e81ee; stroke:none;" d="M586.333 283.667L586.667 284.333L586.333 283.667M654 283L655 284L654 283z"/>
<path style="fill:#f1b290; stroke:none;" d="M90 284L91 285L90 284z"/>
<path style="fill:#9e81ee; stroke:none;" d="M108 284L109 285L108 284M119 284L120 285L119 284M134 284L135 285L134 284M144.667 284.333L145.333 284.667L144.667 284.333z"/>
<path style="fill:#f1b290; stroke:none;" d="M175 284L176 285L175 284z"/>
<path style="fill:#9e81ee; stroke:none;" d="M176 284L177 285L176 284M189 284L190 285L189 284z"/>
<path style="fill:#f1b290; stroke:none;" d="M226 284L227 285L226 284M276 284L277 285L276 284z"/>
<path style="fill:#9e81ee; stroke:none;" d="M287 284L288 285L287 284z"/>
<path style="fill:#f1b290; stroke:none;" d="M288 284L289 285L288 284z"/>
<path style="fill:#9e81ee; stroke:none;" d="M330 284L331 285L330 284M339 284L340 285L339 284z"/>
<path style="fill:#f1b290; stroke:none;" d="M358 284L359 285L358 284z"/>
<path style="fill:#9e81ee; stroke:none;" d="M359 284L360 285L359 284M371 284L372 285L371 284z"/>
<path style="fill:#f1b290; stroke:none;" d="M379 284L380 285L379 284z"/>
<path style="fill:#9e81ee; stroke:none;" d="M413 284L414 285L413 284M426 284L427 285L426 284z"/>
<path style="fill:#f1b290; stroke:none;" d="M427 284L428 285L427 284z"/>
<path style="fill:#9e81ee; stroke:none;" d="M439 284L440 285L439 284M451 284L452 285L451 284M492 284L493 285L492 284M503 284L504 285L503 284z"/>
<path style="fill:#f1b290; stroke:none;" d="M504 284L505 285L504 284z"/>
<path style="fill:#9e81ee; stroke:none;" d="M516 284L517 285L516 284M529 284L530 285L529 284z"/>
<path style="fill:#f1b290; stroke:none;" d="M530 284L531 285L530 284z"/>
<path style="fill:#9e81ee; stroke:none;" d="M557 284L558 285L557 284M566 284L567 285L566 284M574 284L575 285L574 284M583 284L584 285L583 284z"/>
<path style="fill:#f1b290; stroke:none;" d="M632 284L633 285L632 284z"/>
<path style="fill:#9e81ee; stroke:none;" d="M643 284L644 285L643 284z"/>
<path style="fill:#f1b290; stroke:none;" d="M653 284L654 285L653 284z"/>
<path style="fill:#9e81ee; stroke:none;" d="M662 284L663 285L662 284z"/>
<path style="fill:#f1b290; stroke:none;" d="M110 285L111 286L110 285z"/>
<path style="fill:#9e81ee; stroke:none;" d="M111 285L111 286L116 286L111 285z"/>
<path style="fill:#f1b290; stroke:none;" d="M116 285L117 286L116 285M136 285L137 286L136 285z"/>
<path style="fill:#9e81ee; stroke:none;" d="M137 285L137 286L141 286L137 285z"/>
<path style="fill:#f1b290; stroke:none;" d="M141.667 285.333L142.333 285.667L141.667 285.333M178 285L179 286L178 285z"/>
<path style="fill:#9e81ee; stroke:none;" d="M179 285L179 286L186 286L179 285z"/>
<path style="fill:#f1b290; stroke:none;" d="M186 285L187 286L186 285M219 285L220 286L219 285z"/>
<path style="fill:#9e81ee; stroke:none;" d="M220 285L220 286L223 286L220 285z"/>
<path style="fill:#f1b290; stroke:none;" d="M223 285L224 286L223 285M279 285L280 286L279 285z"/>
<path style="fill:#9e81ee; stroke:none;" d="M280 285L280 286L285 286L280 285z"/>
<path style="fill:#f1b290; stroke:none;" d="M285 285L286 286L285 285M332 285L333 286L332 285z"/>
<path style="fill:#9e81ee; stroke:none;" d="M333 285L333 286L337 286L333 285z"/>
<path style="fill:#f1b290; stroke:none;" d="M337 285L338 286L337 285M361 285L362 286L361 285z"/>
<path style="fill:#9e81ee; stroke:none;" d="M362 285L362 286L368 286L362 285z"/>
<path style="fill:#f1b290; stroke:none;" d="M368 285L369 286L368 285M416 285L417 286L416 285z"/>
<path style="fill:#9e81ee; stroke:none;" d="M417 285L417 286L423 286L417 285z"/>
<path style="fill:#f1b290; stroke:none;" d="M423 285L424 286L423 285M442 285L443 286L442 285z"/>
<path style="fill:#9e81ee; stroke:none;" d="M443 285L443 286L449 286L443 285z"/>
<path style="fill:#f1b290; stroke:none;" d="M495 285L496 286L495 285z"/>
<path style="fill:#9e81ee; stroke:none;" d="M496 285L496 286L500 286L496 285z"/>
<path style="fill:#f1b290; stroke:none;" d="M500.667 285.333L501.333 285.667L500.667 285.333M519 285L520 286L519 285z"/>
<path style="fill:#9e81ee; stroke:none;" d="M520 285L520 286L527 286L520 285z"/>
<path style="fill:#f1b290; stroke:none;" d="M527 285L528 286L527 285M559 285L560 286L559 285z"/>
<path style="fill:#9e81ee; stroke:none;" d="M560 285L560 286L564 286L560 285z"/>
<path style="fill:#f1b290; stroke:none;" d="M564 285L565 286L564 285M576 285L577 286L576 285z"/>
<path style="fill:#9e81ee; stroke:none;" d="M577 285L577 286L581 286L577 285M635 285L635 286L640 286L635 285z"/>
<path style="fill:#f1b290; stroke:none;" d="M640 285L641 286L640 285z"/>
<path style="fill:#9e81ee; stroke:none;" d="M653 285L654 286L653 285z"/>
<path style="fill:#f1b290; stroke:none;" d="M652 286L653 287L652 286z"/>
<path style="fill:#9e81ee; stroke:none;" d="M661 286L662 287L661 286z"/>
<path style="fill:#f1b290; stroke:none;" d="M651 288L652 289L651 288z"/>
<path style="fill:#9e81ee; stroke:none;" d="M660 288L661 289L660 288z"/>
<path style="fill:#f1b290; stroke:none;" d="M650 290L651 291L650 290z"/>
<path style="fill:#9e81ee; stroke:none;" d="M659 290L660 291L659 290M649 292L650 293L649 292z"/>
<path style="fill:#f1b290; stroke:none;" d="M658 292L659 293L658 292z"/>
<path style="fill:#9e81ee; stroke:none;" d="M648 294L649 295L648 294z"/>
<path style="fill:#f1b290; stroke:none;" d="M657 294L658 295L657 294z"/>
</svg>
