<svg xmlns="http://www.w3.org/2000/svg" xmlns:xlink="http://www.w3.org/1999/xlink" width="500" zoomAndPan="magnify" viewBox="0 0 375 374.999991" height="500" preserveAspectRatio="xMidYMid meet" version="1.0"><defs><g/><clipPath id="id1"><path d="M 202 122 L 255 122 L 255 175 L 202 175 Z M 202 122 " clip-rule="nonzero"/></clipPath><clipPath id="id2"><path d="M 202.191406 146.703125 L 230.246094 122.207031 L 254.738281 150.261719 L 226.683594 174.757812 Z M 202.191406 146.703125 " clip-rule="nonzero"/></clipPath><clipPath id="id3"><path d="M 202.191406 146.703125 L 230.246094 122.207031 L 254.738281 150.261719 L 226.683594 174.757812 Z M 202.191406 146.703125 " clip-rule="nonzero"/></clipPath><clipPath id="id4"><path d="M 221 123 L 274 123 L 274 176 L 221 176 Z M 221 123 " clip-rule="nonzero"/></clipPath><clipPath id="id5"><path d="M 221.007812 147.976562 L 249.0625 123.480469 L 273.554688 151.539062 L 245.5 176.03125 Z M 221.007812 147.976562 " clip-rule="nonzero"/></clipPath><clipPath id="id6"><path d="M 221.007812 147.976562 L 249.0625 123.480469 L 273.554688 151.539062 L 245.5 176.03125 Z M 221.007812 147.976562 " clip-rule="nonzero"/></clipPath></defs><rect x="-37.5" width="450" fill="#ffffff" y="-37.499999" height="449.999989" fill-opacity="1"/><rect x="-37.5" width="450" fill="#ffffff" y="-37.499999" height="449.999989" fill-opacity="1"/><rect x="-37.5" width="450" fill="#ffffff" y="-37.499999" height="449.999989" fill-opacity="1"/><rect x="-37.5" width="450" fill="#ffffff" y="-37.499999" height="449.999989" fill-opacity="1"/><g fill="#f66b0e" fill-opacity="1"><g transform="translate(87.234506, 187.323433)"><g><path d="M -1.578125 -43.34375 L 10.296875 -43.34375 L 19.328125 -29.46875 L 28.359375 -43.34375 L 40.234375 -43.34375 L 24.265625 -19.4375 L 24.265625 0 L 14.390625 0 L 14.390625 -19.4375 Z M -1.578125 -43.34375 "/></g></g></g><g fill="#f66b0e" fill-opacity="1"><g transform="translate(125.890856, 187.323433)"><g><path d="M 30.421875 -12.1875 L 10.875 -12.1875 C 10.875 -10.289062 11.484375 -8.890625 12.703125 -7.984375 C 13.929688 -7.078125 15.265625 -6.625 16.703125 -6.625 C 18.210938 -6.625 19.40625 -6.820312 20.28125 -7.21875 C 21.15625 -7.625 22.148438 -8.421875 23.265625 -9.609375 L 30 -6.25 C 27.195312 -1.5625 22.535156 0.78125 16.015625 0.78125 C 11.953125 0.78125 8.46875 -0.609375 5.5625 -3.390625 C 2.65625 -6.171875 1.203125 -9.519531 1.203125 -13.4375 C 1.203125 -17.363281 2.65625 -20.726562 5.5625 -23.53125 C 8.46875 -26.332031 11.953125 -27.734375 16.015625 -27.734375 C 20.296875 -27.734375 23.773438 -26.5 26.453125 -24.03125 C 29.128906 -21.5625 30.46875 -18.035156 30.46875 -13.453125 C 30.46875 -12.816406 30.453125 -12.394531 30.421875 -12.1875 Z M 11.140625 -17.328125 L 21.375 -17.328125 C 21.164062 -18.734375 20.613281 -19.8125 19.71875 -20.5625 C 18.832031 -21.320312 17.6875 -21.703125 16.28125 -21.703125 C 14.738281 -21.703125 13.507812 -21.296875 12.59375 -20.484375 C 11.6875 -19.679688 11.203125 -18.628906 11.140625 -17.328125 Z M 11.140625 -17.328125 "/></g></g></g><g fill="#f66b0e" fill-opacity="1"><g transform="translate(157.561752, 187.323433)"><g><path d="M 14.859375 -27.734375 C 16.398438 -27.734375 17.925781 -27.554688 19.4375 -27.203125 C 20.945312 -26.859375 22.066406 -26.507812 22.796875 -26.15625 L 23.90625 -25.640625 L 20.859375 -19.546875 C 18.753906 -20.660156 16.753906 -21.21875 14.859375 -21.21875 C 13.816406 -21.21875 13.078125 -21.101562 12.640625 -20.875 C 12.203125 -20.65625 11.984375 -20.226562 11.984375 -19.59375 C 11.984375 -19.457031 12 -19.316406 12.03125 -19.171875 C 12.0625 -19.035156 12.128906 -18.90625 12.234375 -18.78125 C 12.335938 -18.65625 12.429688 -18.546875 12.515625 -18.453125 C 12.609375 -18.367188 12.757812 -18.273438 12.96875 -18.171875 C 13.1875 -18.066406 13.351562 -17.988281 13.46875 -17.9375 C 13.59375 -17.882812 13.796875 -17.804688 14.078125 -17.703125 C 14.359375 -17.597656 14.566406 -17.519531 14.703125 -17.46875 C 14.847656 -17.414062 15.085938 -17.335938 15.421875 -17.234375 C 15.753906 -17.128906 16.003906 -17.054688 16.171875 -17.015625 C 17.265625 -16.703125 18.210938 -16.351562 19.015625 -15.96875 C 19.816406 -15.582031 20.664062 -15.054688 21.5625 -14.390625 C 22.457031 -13.722656 23.148438 -12.878906 23.640625 -11.859375 C 24.128906 -10.847656 24.375 -9.695312 24.375 -8.40625 C 24.375 -2.28125 20.117188 0.78125 11.609375 0.78125 C 9.679688 0.78125 7.847656 0.484375 6.109375 -0.109375 C 4.378906 -0.703125 3.128906 -1.296875 2.359375 -1.890625 L 1.203125 -2.84375 L 4.984375 -9.1875 C 5.265625 -8.945312 5.632812 -8.660156 6.09375 -8.328125 C 6.550781 -7.992188 7.375 -7.535156 8.5625 -6.953125 C 9.75 -6.378906 10.78125 -6.09375 11.65625 -6.09375 C 13.582031 -6.09375 14.546875 -6.738281 14.546875 -8.03125 C 14.546875 -8.632812 14.300781 -9.097656 13.8125 -9.421875 C 13.320312 -9.753906 12.488281 -10.128906 11.3125 -10.546875 C 10.144531 -10.972656 9.226562 -11.363281 8.5625 -11.71875 C 6.882812 -12.59375 5.550781 -13.582031 4.5625 -14.6875 C 3.582031 -15.789062 3.09375 -17.25 3.09375 -19.0625 C 3.09375 -21.800781 4.148438 -23.929688 6.265625 -25.453125 C 8.390625 -26.972656 11.253906 -27.734375 14.859375 -27.734375 Z M 14.859375 -27.734375 "/></g></g></g><g fill="#f66b0e" fill-opacity="1"><g transform="translate(183.402687, 187.323433)"><g><path d="M 5.78125 -14.1875 L 4.515625 -45.171875 L 13.8125 -45.171875 L 12.5625 -14.1875 Z M 9.140625 -11.234375 C 10.816406 -11.234375 12.242188 -10.644531 13.421875 -9.46875 C 14.597656 -8.300781 15.1875 -6.878906 15.1875 -5.203125 C 15.1875 -3.554688 14.597656 -2.144531 13.421875 -0.96875 C 12.242188 0.195312 10.816406 0.78125 9.140625 0.78125 C 7.492188 0.78125 6.082031 0.195312 4.90625 -0.96875 C 3.738281 -2.144531 3.15625 -3.554688 3.15625 -5.203125 C 3.15625 -6.878906 3.738281 -8.300781 4.90625 -9.46875 C 6.082031 -10.644531 7.492188 -11.234375 9.140625 -11.234375 Z M 9.140625 -11.234375 "/></g></g></g><g fill="#f66b0e" fill-opacity="1"><g transform="translate(201.723706, 187.323433)"><g/></g></g><g fill="#f66b0e" fill-opacity="1"><g transform="translate(216.062274, 187.323433)"><g/></g></g><g fill="#f66b0e" fill-opacity="1"><g transform="translate(230.400842, 187.323433)"><g/></g></g><g fill="#f66b0e" fill-opacity="1"><g transform="translate(244.739409, 187.323433)"><g/></g></g><g fill="#ff914d" fill-opacity="1"><g transform="translate(259.07361, 187.323433)"><g/></g></g><g fill="#ff914d" fill-opacity="1"><g transform="translate(273.412178, 187.323433)"><g/></g></g><g fill="#5e17eb" fill-opacity="1"><g transform="translate(70.80716, 211.170624)"><g><path d="M 1 -13.6875 L 5.890625 -13.6875 C 7.203125 -13.6875 8.273438 -13.332031 9.109375 -12.625 C 9.941406 -11.925781 10.359375 -10.925781 10.359375 -9.625 C 10.359375 -8.613281 10.101562 -7.769531 9.59375 -7.09375 C 9.09375 -6.414062 8.410156 -5.9375 7.546875 -5.65625 L 12.265625 0 L 8.296875 0 L 4.109375 -5.40625 L 4.109375 0 L 1 0 Z M 4.109375 -7.609375 L 4.484375 -7.609375 C 4.765625 -7.609375 5.003906 -7.613281 5.203125 -7.625 C 5.410156 -7.644531 5.640625 -7.6875 5.890625 -7.75 C 6.140625 -7.8125 6.34375 -7.90625 6.5 -8.03125 C 6.65625 -8.15625 6.785156 -8.332031 6.890625 -8.5625 C 7.003906 -8.789062 7.0625 -9.070312 7.0625 -9.40625 C 7.0625 -9.738281 7.003906 -10.019531 6.890625 -10.25 C 6.785156 -10.488281 6.65625 -10.664062 6.5 -10.78125 C 6.34375 -10.90625 6.140625 -11 5.890625 -11.0625 C 5.640625 -11.132812 5.410156 -11.175781 5.203125 -11.1875 C 5.003906 -11.195312 4.765625 -11.203125 4.484375 -11.203125 L 4.109375 -11.203125 Z M 4.109375 -7.609375 "/></g></g></g><g fill="#5e17eb" fill-opacity="1"><g transform="translate(82.68516, 211.170624)"><g><path d="M 9.609375 -3.84375 L 3.4375 -3.84375 C 3.4375 -3.25 3.628906 -2.804688 4.015625 -2.515625 C 4.398438 -2.234375 4.820312 -2.09375 5.28125 -2.09375 C 5.75 -2.09375 6.117188 -2.15625 6.390625 -2.28125 C 6.671875 -2.40625 6.988281 -2.65625 7.34375 -3.03125 L 9.46875 -1.96875 C 8.582031 -0.488281 7.113281 0.25 5.0625 0.25 C 3.78125 0.25 2.675781 -0.1875 1.75 -1.0625 C 0.832031 -1.945312 0.375 -3.007812 0.375 -4.25 C 0.375 -5.488281 0.832031 -6.550781 1.75 -7.4375 C 2.675781 -8.320312 3.78125 -8.765625 5.0625 -8.765625 C 6.40625 -8.765625 7.5 -8.375 8.34375 -7.59375 C 9.195312 -6.8125 9.625 -5.695312 9.625 -4.25 C 9.625 -4.050781 9.617188 -3.914062 9.609375 -3.84375 Z M 3.515625 -5.46875 L 6.75 -5.46875 C 6.6875 -5.914062 6.515625 -6.257812 6.234375 -6.5 C 5.953125 -6.738281 5.585938 -6.859375 5.140625 -6.859375 C 4.648438 -6.859375 4.257812 -6.726562 3.96875 -6.46875 C 3.6875 -6.21875 3.535156 -5.882812 3.515625 -5.46875 Z M 3.515625 -5.46875 "/></g></g></g><g fill="#5e17eb" fill-opacity="1"><g transform="translate(92.688565, 211.170624)"><g><path d="M 5.53125 -6.359375 C 4.976562 -6.359375 4.5 -6.148438 4.09375 -5.734375 C 3.695312 -5.328125 3.5 -4.835938 3.5 -4.265625 C 3.5 -3.679688 3.695312 -3.179688 4.09375 -2.765625 C 4.5 -2.359375 4.976562 -2.15625 5.53125 -2.15625 C 5.789062 -2.15625 6.039062 -2.1875 6.28125 -2.25 C 6.519531 -2.320312 6.691406 -2.390625 6.796875 -2.453125 L 6.953125 -2.5625 L 7.953125 -0.515625 C 7.867188 -0.460938 7.757812 -0.394531 7.625 -0.3125 C 7.488281 -0.226562 7.171875 -0.113281 6.671875 0.03125 C 6.179688 0.175781 5.65625 0.25 5.09375 0.25 C 3.84375 0.25 2.742188 -0.1875 1.796875 -1.0625 C 0.847656 -1.945312 0.375 -3.003906 0.375 -4.234375 C 0.375 -5.472656 0.847656 -6.535156 1.796875 -7.421875 C 2.742188 -8.316406 3.84375 -8.765625 5.09375 -8.765625 C 5.65625 -8.765625 6.175781 -8.695312 6.65625 -8.5625 C 7.132812 -8.425781 7.472656 -8.296875 7.671875 -8.171875 L 7.953125 -7.96875 L 6.953125 -5.953125 C 6.585938 -6.222656 6.113281 -6.359375 5.53125 -6.359375 Z M 5.53125 -6.359375 "/></g></g></g><g fill="#5e17eb" fill-opacity="1"><g transform="translate(100.833955, 211.170624)"><g><path d="M 1 0 L 1 -8.515625 L 3.9375 -8.515625 L 3.9375 -7.28125 L 3.96875 -7.28125 C 3.988281 -7.320312 4.019531 -7.375 4.0625 -7.4375 C 4.113281 -7.507812 4.222656 -7.628906 4.390625 -7.796875 C 4.554688 -7.960938 4.734375 -8.113281 4.921875 -8.25 C 5.109375 -8.382812 5.351562 -8.503906 5.65625 -8.609375 C 5.957031 -8.710938 6.265625 -8.765625 6.578125 -8.765625 C 6.890625 -8.765625 7.203125 -8.71875 7.515625 -8.625 C 7.828125 -8.539062 8.054688 -8.453125 8.203125 -8.359375 L 8.421875 -8.234375 L 7.203125 -5.734375 C 6.835938 -6.046875 6.328125 -6.203125 5.671875 -6.203125 C 5.316406 -6.203125 5.007812 -6.125 4.75 -5.96875 C 4.5 -5.8125 4.320312 -5.625 4.21875 -5.40625 C 4.113281 -5.1875 4.039062 -5 4 -4.84375 C 3.957031 -4.6875 3.9375 -4.566406 3.9375 -4.484375 L 3.9375 0 Z M 1 0 "/></g></g></g><g fill="#5e17eb" fill-opacity="1"><g transform="translate(109.09547, 211.170624)"><g><path d="M 3.765625 -8.515625 L 3.765625 -4.46875 C 3.765625 -3.625 3.890625 -3.023438 4.140625 -2.671875 C 4.398438 -2.316406 4.832031 -2.140625 5.4375 -2.140625 C 6.050781 -2.140625 6.484375 -2.316406 6.734375 -2.671875 C 6.992188 -3.023438 7.125 -3.625 7.125 -4.46875 L 7.125 -8.515625 L 10.0625 -8.515625 L 10.0625 -3.75 C 10.0625 -2.332031 9.691406 -1.3125 8.953125 -0.6875 C 8.210938 -0.0625 7.039062 0.25 5.4375 0.25 C 3.832031 0.25 2.660156 -0.0625 1.921875 -0.6875 C 1.191406 -1.3125 0.828125 -2.332031 0.828125 -3.75 L 0.828125 -8.515625 Z M 3.765625 -8.515625 "/></g></g></g><g fill="#5e17eb" fill-opacity="1"><g transform="translate(119.978102, 211.170624)"><g><path d="M 1.28125 -13.25 C 1.625 -13.59375 2.03125 -13.765625 2.5 -13.765625 C 2.976562 -13.765625 3.390625 -13.59375 3.734375 -13.25 C 4.078125 -12.914062 4.25 -12.507812 4.25 -12.03125 C 4.25 -11.550781 4.078125 -11.140625 3.734375 -10.796875 C 3.390625 -10.453125 2.976562 -10.28125 2.5 -10.28125 C 2.03125 -10.28125 1.625 -10.453125 1.28125 -10.796875 C 0.9375 -11.140625 0.765625 -11.550781 0.765625 -12.03125 C 0.765625 -12.507812 0.9375 -12.914062 1.28125 -13.25 Z M 1 -8.515625 L 1 0 L 3.9375 0 L 3.9375 -8.515625 Z M 1 -8.515625 "/></g></g></g><g fill="#5e17eb" fill-opacity="1"><g transform="translate(124.988103, 211.170624)"><g><path d="M 1.5 -8.515625 L 1.5 -11.6875 L 4.4375 -11.6875 L 4.4375 -8.515625 L 6.21875 -8.515625 L 6.21875 -6.265625 L 4.4375 -6.265625 L 4.4375 -3.5625 C 4.4375 -2.78125 4.65625 -2.390625 5.09375 -2.390625 C 5.207031 -2.390625 5.320312 -2.410156 5.4375 -2.453125 C 5.5625 -2.492188 5.65625 -2.539062 5.71875 -2.59375 L 5.828125 -2.65625 L 6.546875 -0.28125 C 5.921875 0.0703125 5.203125 0.25 4.390625 0.25 C 3.835938 0.25 3.363281 0.15625 2.96875 -0.03125 C 2.570312 -0.226562 2.269531 -0.488281 2.0625 -0.8125 C 1.863281 -1.144531 1.71875 -1.488281 1.625 -1.84375 C 1.539062 -2.207031 1.5 -2.59375 1.5 -3 L 1.5 -6.265625 L 0.265625 -6.265625 L 0.265625 -8.515625 Z M 1.5 -8.515625 "/></g></g></g><g fill="#5e17eb" fill-opacity="1"><g transform="translate(131.540904, 211.170624)"><g><path d="M 1 0 L 1 -8.515625 L 3.9375 -8.515625 L 3.9375 -7.609375 L 3.96875 -7.609375 C 4.726562 -8.378906 5.539062 -8.765625 6.40625 -8.765625 C 7.019531 -8.765625 7.597656 -8.632812 8.140625 -8.375 C 8.679688 -8.125 9.09375 -7.734375 9.375 -7.203125 C 10.238281 -8.242188 11.179688 -8.765625 12.203125 -8.765625 C 13.109375 -8.765625 13.882812 -8.507812 14.53125 -8 C 15.1875 -7.488281 15.515625 -6.691406 15.515625 -5.609375 L 15.515625 0 L 12.578125 0 L 12.578125 -4.8125 C 12.578125 -5.269531 12.453125 -5.648438 12.203125 -5.953125 C 11.953125 -6.253906 11.578125 -6.40625 11.078125 -6.40625 C 10.648438 -6.40625 10.320312 -6.273438 10.09375 -6.015625 C 9.863281 -5.753906 9.738281 -5.441406 9.71875 -5.078125 L 9.71875 0 L 6.78125 0 L 6.78125 -4.8125 C 6.78125 -5.269531 6.65625 -5.648438 6.40625 -5.953125 C 6.164062 -6.253906 5.796875 -6.40625 5.296875 -6.40625 C 4.835938 -6.40625 4.492188 -6.265625 4.265625 -5.984375 C 4.046875 -5.703125 3.9375 -5.367188 3.9375 -4.984375 L 3.9375 0 Z M 1 0 "/></g></g></g><g fill="#5e17eb" fill-opacity="1"><g transform="translate(147.88144, 211.170624)"><g><path d="M 9.609375 -3.84375 L 3.4375 -3.84375 C 3.4375 -3.25 3.628906 -2.804688 4.015625 -2.515625 C 4.398438 -2.234375 4.820312 -2.09375 5.28125 -2.09375 C 5.75 -2.09375 6.117188 -2.15625 6.390625 -2.28125 C 6.671875 -2.40625 6.988281 -2.65625 7.34375 -3.03125 L 9.46875 -1.96875 C 8.582031 -0.488281 7.113281 0.25 5.0625 0.25 C 3.78125 0.25 2.675781 -0.1875 1.75 -1.0625 C 0.832031 -1.945312 0.375 -3.007812 0.375 -4.25 C 0.375 -5.488281 0.832031 -6.550781 1.75 -7.4375 C 2.675781 -8.320312 3.78125 -8.765625 5.0625 -8.765625 C 6.40625 -8.765625 7.5 -8.375 8.34375 -7.59375 C 9.195312 -6.8125 9.625 -5.695312 9.625 -4.25 C 9.625 -4.050781 9.617188 -3.914062 9.609375 -3.84375 Z M 3.515625 -5.46875 L 6.75 -5.46875 C 6.6875 -5.914062 6.515625 -6.257812 6.234375 -6.5 C 5.953125 -6.738281 5.585938 -6.859375 5.140625 -6.859375 C 4.648438 -6.859375 4.257812 -6.726562 3.96875 -6.46875 C 3.6875 -6.21875 3.535156 -5.882812 3.515625 -5.46875 Z M 3.515625 -5.46875 "/></g></g></g><g fill="#5e17eb" fill-opacity="1"><g transform="translate(157.884845, 211.170624)"><g><path d="M 1 0 L 1 -8.515625 L 3.9375 -8.515625 L 3.9375 -7.609375 L 3.96875 -7.609375 C 4.726562 -8.378906 5.539062 -8.765625 6.40625 -8.765625 C 6.820312 -8.765625 7.238281 -8.707031 7.65625 -8.59375 C 8.070312 -8.476562 8.46875 -8.304688 8.84375 -8.078125 C 9.226562 -7.847656 9.539062 -7.519531 9.78125 -7.09375 C 10.019531 -6.664062 10.140625 -6.171875 10.140625 -5.609375 L 10.140625 0 L 7.203125 0 L 7.203125 -4.8125 C 7.203125 -5.25 7.0625 -5.632812 6.78125 -5.96875 C 6.5 -6.300781 6.128906 -6.46875 5.671875 -6.46875 C 5.234375 -6.46875 4.832031 -6.296875 4.46875 -5.953125 C 4.113281 -5.609375 3.9375 -5.226562 3.9375 -4.8125 L 3.9375 0 Z M 1 0 "/></g></g></g><g fill="#5e17eb" fill-opacity="1"><g transform="translate(168.850426, 211.170624)"><g><path d="M 1.5 -8.515625 L 1.5 -11.6875 L 4.4375 -11.6875 L 4.4375 -8.515625 L 6.21875 -8.515625 L 6.21875 -6.265625 L 4.4375 -6.265625 L 4.4375 -3.5625 C 4.4375 -2.78125 4.65625 -2.390625 5.09375 -2.390625 C 5.207031 -2.390625 5.320312 -2.410156 5.4375 -2.453125 C 5.5625 -2.492188 5.65625 -2.539062 5.71875 -2.59375 L 5.828125 -2.65625 L 6.546875 -0.28125 C 5.921875 0.0703125 5.203125 0.25 4.390625 0.25 C 3.835938 0.25 3.363281 0.15625 2.96875 -0.03125 C 2.570312 -0.226562 2.269531 -0.488281 2.0625 -0.8125 C 1.863281 -1.144531 1.71875 -1.488281 1.625 -1.84375 C 1.539062 -2.207031 1.5 -2.59375 1.5 -3 L 1.5 -6.265625 L 0.265625 -6.265625 L 0.265625 -8.515625 Z M 1.5 -8.515625 "/></g></g></g><g fill="#5e17eb" fill-opacity="1"><g transform="translate(175.403227, 211.170624)"><g/></g></g><g fill="#5e17eb" fill-opacity="1"><g transform="translate(179.932132, 211.170624)"><g><path d="M 0.484375 -3.59375 C 0.484375 -4.007812 0.578125 -4.40625 0.765625 -4.78125 C 0.953125 -5.15625 1.21875 -5.492188 1.5625 -5.796875 C 1.90625 -6.109375 2.253906 -6.378906 2.609375 -6.609375 C 2.960938 -6.847656 3.363281 -7.085938 3.8125 -7.328125 C 2.894531 -8.484375 2.4375 -9.5 2.4375 -10.375 C 2.4375 -11.457031 2.816406 -12.320312 3.578125 -12.96875 C 4.335938 -13.613281 5.410156 -13.9375 6.796875 -13.9375 C 8.085938 -13.9375 9.085938 -13.578125 9.796875 -12.859375 C 10.515625 -12.140625 10.875 -11.3125 10.875 -10.375 C 10.875 -9.988281 10.773438 -9.609375 10.578125 -9.234375 C 10.390625 -8.859375 10.164062 -8.539062 9.90625 -8.28125 C 9.65625 -8.03125 9.394531 -7.800781 9.125 -7.59375 C 8.863281 -7.394531 8.640625 -7.25 8.453125 -7.15625 L 8.171875 -7 L 9.984375 -5.109375 C 10.390625 -5.285156 11.0625 -5.863281 12 -6.84375 L 13.921875 -4.9375 C 13.304688 -4.238281 12.660156 -3.613281 11.984375 -3.0625 L 14.9375 0 L 11 0 L 9.640625 -1.40625 C 9.222656 -1.113281 8.910156 -0.898438 8.703125 -0.765625 C 8.503906 -0.640625 8.207031 -0.476562 7.8125 -0.28125 C 7.425781 -0.0820312 7.023438 0.0507812 6.609375 0.125 C 6.191406 0.207031 5.738281 0.25 5.25 0.25 C 4.8125 0.25 4.378906 0.210938 3.953125 0.140625 C 3.535156 0.0664062 3.113281 -0.0546875 2.6875 -0.234375 C 2.269531 -0.421875 1.898438 -0.648438 1.578125 -0.921875 C 1.253906 -1.203125 0.988281 -1.570312 0.78125 -2.03125 C 0.582031 -2.488281 0.484375 -3.007812 0.484375 -3.59375 Z M 6.796875 -11.734375 C 6.398438 -11.734375 6.101562 -11.601562 5.90625 -11.34375 C 5.707031 -11.09375 5.609375 -10.769531 5.609375 -10.375 C 5.609375 -10.132812 5.691406 -9.875 5.859375 -9.59375 C 6.023438 -9.3125 6.191406 -9.085938 6.359375 -8.921875 L 6.609375 -8.6875 C 7.617188 -9.25 8.125 -9.8125 8.125 -10.375 C 8.125 -11.28125 7.679688 -11.734375 6.796875 -11.734375 Z M 7.609375 -3.484375 L 5.4375 -5.625 C 5.40625 -5.613281 5.351562 -5.59375 5.28125 -5.5625 C 5.21875 -5.539062 5.101562 -5.472656 4.9375 -5.359375 C 4.78125 -5.253906 4.640625 -5.140625 4.515625 -5.015625 C 4.390625 -4.890625 4.273438 -4.722656 4.171875 -4.515625 C 4.066406 -4.304688 4.015625 -4.082031 4.015625 -3.84375 C 4.015625 -3.476562 4.164062 -3.195312 4.46875 -3 C 4.78125 -2.800781 5.144531 -2.703125 5.5625 -2.703125 C 5.894531 -2.703125 6.226562 -2.765625 6.5625 -2.890625 C 6.90625 -3.023438 7.164062 -3.15625 7.34375 -3.28125 Z M 7.609375 -3.484375 "/></g></g></g><g fill="#5e17eb" fill-opacity="1"><g transform="translate(193.751096, 211.170624)"><g/></g></g><g fill="#5e17eb" fill-opacity="1"><g transform="translate(198.28, 211.170624)"><g><path d="M 8.28125 -2.828125 C 8.757812 -2.828125 9.222656 -2.894531 9.671875 -3.03125 C 10.117188 -3.175781 10.445312 -3.316406 10.65625 -3.453125 L 10.96875 -3.671875 L 12.296875 -1.015625 C 12.253906 -0.984375 12.191406 -0.9375 12.109375 -0.875 C 12.035156 -0.820312 11.859375 -0.71875 11.578125 -0.5625 C 11.296875 -0.414062 10.992188 -0.285156 10.671875 -0.171875 C 10.347656 -0.0664062 9.925781 0.0234375 9.40625 0.109375 C 8.882812 0.203125 8.347656 0.25 7.796875 0.25 C 6.523438 0.25 5.316406 -0.0625 4.171875 -0.6875 C 3.035156 -1.3125 2.117188 -2.171875 1.421875 -3.265625 C 0.722656 -4.359375 0.375 -5.539062 0.375 -6.8125 C 0.375 -7.78125 0.578125 -8.707031 0.984375 -9.59375 C 1.398438 -10.476562 1.945312 -11.234375 2.625 -11.859375 C 3.3125 -12.492188 4.109375 -13 5.015625 -13.375 C 5.921875 -13.75 6.847656 -13.9375 7.796875 -13.9375 C 8.679688 -13.9375 9.492188 -13.832031 10.234375 -13.625 C 10.984375 -13.414062 11.515625 -13.207031 11.828125 -13 L 12.296875 -12.671875 L 10.96875 -10.015625 C 10.894531 -10.085938 10.78125 -10.171875 10.625 -10.265625 C 10.46875 -10.359375 10.15625 -10.484375 9.6875 -10.640625 C 9.226562 -10.796875 8.757812 -10.875 8.28125 -10.875 C 7.53125 -10.875 6.851562 -10.75 6.25 -10.5 C 5.65625 -10.257812 5.179688 -9.9375 4.828125 -9.53125 C 4.484375 -9.132812 4.21875 -8.707031 4.03125 -8.25 C 3.851562 -7.789062 3.765625 -7.328125 3.765625 -6.859375 C 3.765625 -5.816406 4.15625 -4.882812 4.9375 -4.0625 C 5.71875 -3.238281 6.832031 -2.828125 8.28125 -2.828125 Z M 8.28125 -2.828125 "/></g></g></g><g fill="#5e17eb" fill-opacity="1"><g transform="translate(210.771802, 211.170624)"><g><path d="M 1.796875 -1 C 0.847656 -1.84375 0.375 -2.921875 0.375 -4.234375 C 0.375 -5.554688 0.863281 -6.640625 1.84375 -7.484375 C 2.832031 -8.335938 4.054688 -8.765625 5.515625 -8.765625 C 6.941406 -8.765625 8.144531 -8.335938 9.125 -7.484375 C 10.101562 -6.628906 10.59375 -5.550781 10.59375 -4.25 C 10.59375 -2.945312 10.113281 -1.867188 9.15625 -1.015625 C 8.195312 -0.171875 6.984375 0.25 5.515625 0.25 C 3.984375 0.25 2.742188 -0.164062 1.796875 -1 Z M 4.0625 -5.6875 C 3.6875 -5.3125 3.5 -4.832031 3.5 -4.25 C 3.5 -3.664062 3.679688 -3.1875 4.046875 -2.8125 C 4.410156 -2.4375 4.894531 -2.25 5.5 -2.25 C 6.070312 -2.25 6.539062 -2.4375 6.90625 -2.8125 C 7.28125 -3.195312 7.46875 -3.675781 7.46875 -4.25 C 7.46875 -4.832031 7.273438 -5.3125 6.890625 -5.6875 C 6.515625 -6.0625 6.050781 -6.25 5.5 -6.25 C 4.925781 -6.25 4.445312 -6.0625 4.0625 -5.6875 Z M 4.0625 -5.6875 "/></g></g></g><g fill="#5e17eb" fill-opacity="1"><g transform="translate(221.737382, 211.170624)"><g><path d="M 1 0 L 1 -8.515625 L 3.9375 -8.515625 L 3.9375 -7.609375 L 3.96875 -7.609375 C 4.726562 -8.378906 5.539062 -8.765625 6.40625 -8.765625 C 6.820312 -8.765625 7.238281 -8.707031 7.65625 -8.59375 C 8.070312 -8.476562 8.46875 -8.304688 8.84375 -8.078125 C 9.226562 -7.847656 9.539062 -7.519531 9.78125 -7.09375 C 10.019531 -6.664062 10.140625 -6.171875 10.140625 -5.609375 L 10.140625 0 L 7.203125 0 L 7.203125 -4.8125 C 7.203125 -5.25 7.0625 -5.632812 6.78125 -5.96875 C 6.5 -6.300781 6.128906 -6.46875 5.671875 -6.46875 C 5.234375 -6.46875 4.832031 -6.296875 4.46875 -5.953125 C 4.113281 -5.609375 3.9375 -5.226562 3.9375 -4.8125 L 3.9375 0 Z M 1 0 "/></g></g></g><g fill="#5e17eb" fill-opacity="1"><g transform="translate(232.702963, 211.170624)"><g><path d="M 4.703125 -8.765625 C 5.179688 -8.765625 5.660156 -8.707031 6.140625 -8.59375 C 6.617188 -8.476562 6.972656 -8.367188 7.203125 -8.265625 L 7.546875 -8.09375 L 6.59375 -6.171875 C 5.925781 -6.523438 5.296875 -6.703125 4.703125 -6.703125 C 4.367188 -6.703125 4.128906 -6.664062 3.984375 -6.59375 C 3.847656 -6.519531 3.78125 -6.382812 3.78125 -6.1875 C 3.78125 -6.144531 3.785156 -6.097656 3.796875 -6.046875 C 3.804688 -6.003906 3.828125 -5.960938 3.859375 -5.921875 C 3.898438 -5.890625 3.929688 -5.859375 3.953125 -5.828125 C 3.984375 -5.804688 4.03125 -5.773438 4.09375 -5.734375 C 4.164062 -5.703125 4.21875 -5.675781 4.25 -5.65625 C 4.289062 -5.644531 4.351562 -5.625 4.4375 -5.59375 C 4.53125 -5.5625 4.597656 -5.535156 4.640625 -5.515625 C 4.691406 -5.503906 4.769531 -5.476562 4.875 -5.4375 C 4.976562 -5.40625 5.054688 -5.382812 5.109375 -5.375 C 5.453125 -5.28125 5.75 -5.171875 6 -5.046875 C 6.257812 -4.921875 6.53125 -4.753906 6.8125 -4.546875 C 7.09375 -4.335938 7.3125 -4.070312 7.46875 -3.75 C 7.625 -3.425781 7.703125 -3.0625 7.703125 -2.65625 C 7.703125 -0.71875 6.359375 0.25 3.671875 0.25 C 3.054688 0.25 2.472656 0.15625 1.921875 -0.03125 C 1.378906 -0.21875 0.988281 -0.40625 0.75 -0.59375 L 0.375 -0.890625 L 1.578125 -2.90625 C 1.660156 -2.820312 1.773438 -2.726562 1.921875 -2.625 C 2.066406 -2.519531 2.328125 -2.375 2.703125 -2.1875 C 3.078125 -2.007812 3.40625 -1.921875 3.6875 -1.921875 C 4.289062 -1.921875 4.59375 -2.125 4.59375 -2.53125 C 4.59375 -2.726562 4.515625 -2.878906 4.359375 -2.984375 C 4.203125 -3.085938 3.9375 -3.203125 3.5625 -3.328125 C 3.195312 -3.460938 2.910156 -3.585938 2.703125 -3.703125 C 2.171875 -3.972656 1.75 -4.28125 1.4375 -4.625 C 1.132812 -4.976562 0.984375 -5.445312 0.984375 -6.03125 C 0.984375 -6.882812 1.316406 -7.550781 1.984375 -8.03125 C 2.648438 -8.519531 3.554688 -8.765625 4.703125 -8.765625 Z M 4.703125 -8.765625 "/></g></g></g><g fill="#5e17eb" fill-opacity="1"><g transform="translate(240.864933, 211.170624)"><g><path d="M 3.765625 -8.515625 L 3.765625 -4.46875 C 3.765625 -3.625 3.890625 -3.023438 4.140625 -2.671875 C 4.398438 -2.316406 4.832031 -2.140625 5.4375 -2.140625 C 6.050781 -2.140625 6.484375 -2.316406 6.734375 -2.671875 C 6.992188 -3.023438 7.125 -3.625 7.125 -4.46875 L 7.125 -8.515625 L 10.0625 -8.515625 L 10.0625 -3.75 C 10.0625 -2.332031 9.691406 -1.3125 8.953125 -0.6875 C 8.210938 -0.0625 7.039062 0.25 5.4375 0.25 C 3.832031 0.25 2.660156 -0.0625 1.921875 -0.6875 C 1.191406 -1.3125 0.828125 -2.332031 0.828125 -3.75 L 0.828125 -8.515625 Z M 3.765625 -8.515625 "/></g></g></g><g fill="#5e17eb" fill-opacity="1"><g transform="translate(251.747566, 211.170624)"><g><path d="M 1 0 L 1 -14.265625 L 3.9375 -14.265625 L 3.9375 0 Z M 1 0 "/></g></g></g><g fill="#5e17eb" fill-opacity="1"><g transform="translate(256.674618, 211.170624)"><g><path d="M 1.5 -8.515625 L 1.5 -11.6875 L 4.4375 -11.6875 L 4.4375 -8.515625 L 6.21875 -8.515625 L 6.21875 -6.265625 L 4.4375 -6.265625 L 4.4375 -3.5625 C 4.4375 -2.78125 4.65625 -2.390625 5.09375 -2.390625 C 5.207031 -2.390625 5.320312 -2.410156 5.4375 -2.453125 C 5.5625 -2.492188 5.65625 -2.539062 5.71875 -2.59375 L 5.828125 -2.65625 L 6.546875 -0.28125 C 5.921875 0.0703125 5.203125 0.25 4.390625 0.25 C 3.835938 0.25 3.363281 0.15625 2.96875 -0.03125 C 2.570312 -0.226562 2.269531 -0.488281 2.0625 -0.8125 C 1.863281 -1.144531 1.71875 -1.488281 1.625 -1.84375 C 1.539062 -2.207031 1.5 -2.59375 1.5 -3 L 1.5 -6.265625 L 0.265625 -6.265625 L 0.265625 -8.515625 Z M 1.5 -8.515625 "/></g></g></g><g fill="#5e17eb" fill-opacity="1"><g transform="translate(263.227419, 211.170624)"><g><path d="M 1.5625 -1.046875 C 0.769531 -1.921875 0.375 -2.988281 0.375 -4.25 C 0.375 -5.507812 0.769531 -6.578125 1.5625 -7.453125 C 2.363281 -8.328125 3.378906 -8.765625 4.609375 -8.765625 C 5.742188 -8.765625 6.675781 -8.410156 7.40625 -7.703125 L 7.40625 -8.515625 L 10.34375 -8.515625 L 10.34375 0 L 7.4375 0 L 7.4375 -0.96875 L 7.40625 -0.96875 C 6.675781 -0.15625 5.742188 0.25 4.609375 0.25 C 3.378906 0.25 2.363281 -0.179688 1.5625 -1.046875 Z M 4.0625 -5.6875 C 3.6875 -5.3125 3.5 -4.832031 3.5 -4.25 C 3.5 -3.664062 3.679688 -3.1875 4.046875 -2.8125 C 4.410156 -2.4375 4.894531 -2.25 5.5 -2.25 C 6.070312 -2.25 6.539062 -2.4375 6.90625 -2.8125 C 7.28125 -3.195312 7.46875 -3.675781 7.46875 -4.25 C 7.46875 -4.832031 7.273438 -5.3125 6.890625 -5.6875 C 6.515625 -6.0625 6.050781 -6.25 5.5 -6.25 C 4.925781 -6.25 4.445312 -6.0625 4.0625 -5.6875 Z M 4.0625 -5.6875 "/></g></g></g><g fill="#5e17eb" fill-opacity="1"><g transform="translate(274.55797, 211.170624)"><g><path d="M 1 0 L 1 -8.515625 L 3.9375 -8.515625 L 3.9375 -7.609375 L 3.96875 -7.609375 C 4.726562 -8.378906 5.539062 -8.765625 6.40625 -8.765625 C 6.820312 -8.765625 7.238281 -8.707031 7.65625 -8.59375 C 8.070312 -8.476562 8.46875 -8.304688 8.84375 -8.078125 C 9.226562 -7.847656 9.539062 -7.519531 9.78125 -7.09375 C 10.019531 -6.664062 10.140625 -6.171875 10.140625 -5.609375 L 10.140625 0 L 7.203125 0 L 7.203125 -4.8125 C 7.203125 -5.25 7.0625 -5.632812 6.78125 -5.96875 C 6.5 -6.300781 6.128906 -6.46875 5.671875 -6.46875 C 5.234375 -6.46875 4.832031 -6.296875 4.46875 -5.953125 C 4.113281 -5.609375 3.9375 -5.226562 3.9375 -4.8125 L 3.9375 0 Z M 1 0 "/></g></g></g><g fill="#5e17eb" fill-opacity="1"><g transform="translate(285.523551, 211.170624)"><g><path d="M 5.53125 -6.359375 C 4.976562 -6.359375 4.5 -6.148438 4.09375 -5.734375 C 3.695312 -5.328125 3.5 -4.835938 3.5 -4.265625 C 3.5 -3.679688 3.695312 -3.179688 4.09375 -2.765625 C 4.5 -2.359375 4.976562 -2.15625 5.53125 -2.15625 C 5.789062 -2.15625 6.039062 -2.1875 6.28125 -2.25 C 6.519531 -2.320312 6.691406 -2.390625 6.796875 -2.453125 L 6.953125 -2.5625 L 7.953125 -0.515625 C 7.867188 -0.460938 7.757812 -0.394531 7.625 -0.3125 C 7.488281 -0.226562 7.171875 -0.113281 6.671875 0.03125 C 6.179688 0.175781 5.65625 0.25 5.09375 0.25 C 3.84375 0.25 2.742188 -0.1875 1.796875 -1.0625 C 0.847656 -1.945312 0.375 -3.003906 0.375 -4.234375 C 0.375 -5.472656 0.847656 -6.535156 1.796875 -7.421875 C 2.742188 -8.316406 3.84375 -8.765625 5.09375 -8.765625 C 5.65625 -8.765625 6.175781 -8.695312 6.65625 -8.5625 C 7.132812 -8.425781 7.472656 -8.296875 7.671875 -8.171875 L 7.953125 -7.96875 L 6.953125 -5.953125 C 6.585938 -6.222656 6.113281 -6.359375 5.53125 -6.359375 Z M 5.53125 -6.359375 "/></g></g></g><g fill="#5e17eb" fill-opacity="1"><g transform="translate(293.668941, 211.170624)"><g><path d="M 7.453125 -8.515625 L 10.828125 -8.515625 L 4.140625 4.3125 L 0.765625 4.3125 L 3.703125 -1.328125 L -0.328125 -8.515625 L 3.046875 -8.515625 L 5.421875 -4.140625 Z M 7.453125 -8.515625 "/></g></g></g><g clip-path="url(#id1)"><g clip-path="url(#id2)"><g clip-path="url(#id3)"><path fill="#f66b0e" d="M 254.101562 150.769531 L 227.273438 174.191406 C 227.109375 174.332031 226.921875 174.394531 226.710938 174.378906 C 226.496094 174.363281 226.320312 174.277344 226.175781 174.117188 L 202.753906 147.289062 C 202.613281 147.128906 202.550781 146.941406 202.5625 146.726562 C 202.578125 146.511719 202.667969 146.335938 202.828125 146.195312 L 229.65625 122.773438 C 229.816406 122.628906 230.003906 122.5625 230.222656 122.578125 C 230.4375 122.59375 230.613281 122.679688 230.753906 122.847656 L 254.175781 149.671875 C 254.316406 149.835938 254.378906 150.023438 254.363281 150.238281 C 254.351562 150.449219 254.261719 150.628906 254.101562 150.769531 Z M 254.101562 150.769531 " fill-opacity="1" fill-rule="nonzero"/></g></g></g><g clip-path="url(#id4)"><g clip-path="url(#id5)"><g clip-path="url(#id6)"><path fill="#5e17eb" d="M 272.917969 152.042969 L 246.089844 175.46875 C 245.925781 175.605469 245.738281 175.667969 245.527344 175.652344 C 245.3125 175.640625 245.136719 175.550781 244.992188 175.394531 L 221.570312 148.566406 C 221.429688 148.402344 221.363281 148.214844 221.378906 148 C 221.394531 147.789062 221.484375 147.609375 221.644531 147.46875 L 248.472656 124.046875 C 248.632812 123.902344 248.820312 123.839844 249.035156 123.851562 C 249.253906 123.867188 249.429688 123.957031 249.570312 124.121094 L 272.992188 150.949219 C 273.132812 151.109375 273.195312 151.296875 273.179688 151.511719 C 273.167969 151.726562 273.078125 151.902344 272.917969 152.042969 Z M 272.917969 152.042969 " fill-opacity="1" fill-rule="nonzero"/></g></g></g></svg>