<svg xmlns="http://www.w3.org/2000/svg" xmlns:xlink="http://www.w3.org/1999/xlink" width="500" zoomAndPan="magnify" viewBox="0 0 375 374.999991" height="500" preserveAspectRatio="xMidYMid meet" version="1.0"><defs><clipPath id="id1"><path d="M 141 152 L 210 152 L 210 221 L 141 221 Z M 141 152 " clip-rule="nonzero"/></clipPath><clipPath id="id2"><path d="M 140.90625 184.339844 L 177.628906 152.28125 L 209.691406 189.003906 L 172.96875 221.066406 Z M 140.90625 184.339844 " clip-rule="nonzero"/></clipPath><clipPath id="id3"><path d="M 140.90625 184.339844 L 177.628906 152.28125 L 209.691406 189.003906 L 172.96875 221.066406 Z M 140.90625 184.339844 " clip-rule="nonzero"/></clipPath><clipPath id="id4"><path d="M 166 154 L 234 154 L 234 223 L 166 223 Z M 166 154 " clip-rule="nonzero"/></clipPath><clipPath id="id5"><path d="M 165.585938 186.015625 L 202.308594 153.953125 L 234.371094 190.675781 L 197.648438 222.738281 Z M 165.585938 186.015625 " clip-rule="nonzero"/></clipPath><clipPath id="id6"><path d="M 165.585938 186.015625 L 202.308594 153.953125 L 234.371094 190.675781 L 197.648438 222.738281 Z M 165.585938 186.015625 " clip-rule="nonzero"/></clipPath></defs><rect x="-37.5" width="450" fill="#ffffff" y="-37.499999" height="449.999989" fill-opacity="1"/><rect x="-37.5" width="450" fill="#ffffff" y="-37.499999" height="449.999989" fill-opacity="1"/><rect x="-37.5" width="450" fill="#ffffff" y="-37.499999" height="449.999989" fill-opacity="1"/><rect x="-37.5" width="450" fill="#ffffff" y="-37.499999" height="449.999989" fill-opacity="1"/><g clip-path="url(#id1)"><g clip-path="url(#id2)"><g clip-path="url(#id3)"><path fill="#f66b0e" d="M 208.855469 189.667969 L 173.738281 220.324219 C 173.527344 220.507812 173.28125 220.589844 173.003906 220.570312 C 172.722656 220.550781 172.492188 220.4375 172.304688 220.226562 L 141.644531 185.113281 C 141.554688 185.011719 141.488281 184.894531 141.445312 184.769531 C 141.402344 184.640625 141.386719 184.507812 141.394531 184.375 C 141.402344 184.238281 141.4375 184.113281 141.5 183.992188 C 141.558594 183.871094 141.640625 183.765625 141.742188 183.675781 L 176.859375 153.019531 C 176.960938 152.929688 177.074219 152.859375 177.203125 152.816406 C 177.332031 152.773438 177.460938 152.753906 177.597656 152.765625 C 177.730469 152.773438 177.859375 152.808594 177.980469 152.871094 C 178.101562 152.929688 178.207031 153.011719 178.292969 153.117188 L 208.953125 188.230469 C 209.042969 188.332031 209.105469 188.449219 209.148438 188.574219 C 209.191406 188.703125 209.210938 188.835938 209.199219 188.96875 C 209.191406 189.105469 209.15625 189.230469 209.097656 189.351562 C 209.039062 189.472656 208.957031 189.578125 208.855469 189.667969 Z M 208.855469 189.667969 " fill-opacity="1" fill-rule="nonzero"/></g></g></g><g clip-path="url(#id4)"><g clip-path="url(#id5)"><g clip-path="url(#id6)"><path fill="#5e17eb" d="M 233.535156 191.339844 L 198.417969 221.996094 C 198.207031 222.179688 197.960938 222.261719 197.683594 222.242188 C 197.402344 222.222656 197.171875 222.109375 196.984375 221.902344 L 166.328125 186.785156 C 166.238281 186.683594 166.171875 186.570312 166.125 186.441406 C 166.082031 186.3125 166.066406 186.183594 166.074219 186.046875 C 166.085938 185.914062 166.117188 185.785156 166.179688 185.664062 C 166.238281 185.542969 166.320312 185.4375 166.421875 185.351562 L 201.539062 154.691406 C 201.640625 154.601562 201.753906 154.535156 201.882812 154.488281 C 202.011719 154.445312 202.140625 154.425781 202.277344 154.4375 C 202.414062 154.445312 202.539062 154.480469 202.660156 154.542969 C 202.78125 154.601562 202.886719 154.683594 202.972656 154.789062 L 233.632812 189.90625 C 233.722656 190.007812 233.789062 190.121094 233.832031 190.25 C 233.875 190.375 233.890625 190.507812 233.882812 190.640625 C 233.871094 190.777344 233.839844 190.902344 233.777344 191.023438 C 233.71875 191.144531 233.636719 191.25 233.535156 191.339844 Z M 233.535156 191.339844 " fill-opacity="1" fill-rule="nonzero"/></g></g></g></svg>