<svg xmlns="http://www.w3.org/2000/svg" xmlns:xlink="http://www.w3.org/1999/xlink" width="50" zoomAndPan="magnify" viewBox="0 0 37.5 37.499999" height="50" preserveAspectRatio="xMidYMid meet" version="1.0"><defs><clipPath id="id1"><path d="M 0 0 L 37.007812 0 L 37.007812 37.007812 L 0 37.007812 Z M 0 0 " clip-rule="nonzero"/></clipPath><clipPath id="id2"><path d="M 0 4 L 28 4 L 28 32 L 0 32 Z M 0 4 " clip-rule="nonzero"/></clipPath><clipPath id="id3"><path d="M 0 17.476562 L 14.691406 4.652344 L 27.515625 19.34375 L 12.824219 32.167969 Z M 0 17.476562 " clip-rule="nonzero"/></clipPath><clipPath id="id4"><path d="M 0 17.476562 L 14.691406 4.652344 L 27.515625 19.34375 L 12.824219 32.167969 Z M 0 17.476562 " clip-rule="nonzero"/></clipPath><clipPath id="id5"><path d="M 10 5 L 37.007812 5 L 37.007812 33 L 10 33 Z M 10 5 " clip-rule="nonzero"/></clipPath><clipPath id="id6"><path d="M 9.933594 18.152344 L 24.621094 5.328125 L 37.445312 20.015625 L 22.757812 32.839844 Z M 9.933594 18.152344 " clip-rule="nonzero"/></clipPath><clipPath id="id7"><path d="M 9.933594 18.152344 L 24.621094 5.328125 L 37.445312 20.015625 L 22.757812 32.839844 Z M 9.933594 18.152344 " clip-rule="nonzero"/></clipPath></defs><g clip-path="url(#id1)"><path fill="#ffffff" d="M 0 0 L 37.5 0 L 37.5 45 L 0 45 Z M 0 0 " fill-opacity="1" fill-rule="nonzero"/><path fill="#ffffff" d="M 0 0 L 37.5 0 L 37.5 37.5 L 0 37.5 Z M 0 0 " fill-opacity="1" fill-rule="nonzero"/><path fill="#ffffff" d="M 0 0 L 37.5 0 L 37.5 37.5 L 0 37.5 Z M 0 0 " fill-opacity="1" fill-rule="nonzero"/><path fill="#ffffff" d="M 0 0 L 37.5 0 L 37.5 37.5 L 0 37.5 Z M 0 0 " fill-opacity="1" fill-rule="nonzero"/></g><g clip-path="url(#id2)"><g clip-path="url(#id3)"><g clip-path="url(#id4)"><path fill="#f66b0e" d="M 27.179688 19.609375 L 13.132812 31.871094 C 13.046875 31.945312 12.949219 31.976562 12.839844 31.96875 C 12.726562 31.960938 12.632812 31.917969 12.558594 31.832031 L 0.296875 17.785156 C 0.222656 17.703125 0.1875 17.601562 0.195312 17.492188 C 0.203125 17.378906 0.25 17.285156 0.335938 17.210938 L 14.382812 4.949219 C 14.464844 4.875 14.5625 4.839844 14.675781 4.847656 C 14.789062 4.855469 14.882812 4.902344 14.957031 4.988281 L 27.21875 19.035156 C 27.292969 19.117188 27.324219 19.21875 27.320312 19.328125 C 27.3125 19.441406 27.265625 19.535156 27.179688 19.609375 Z M 27.179688 19.609375 " fill-opacity="1" fill-rule="nonzero"/></g></g></g><g clip-path="url(#id5)"><g clip-path="url(#id6)"><g clip-path="url(#id7)"><path fill="#5e17eb" d="M 37.113281 20.28125 L 23.066406 32.542969 C 22.980469 32.617188 22.882812 32.648438 22.769531 32.640625 C 22.660156 32.632812 22.566406 32.589844 22.492188 32.503906 L 10.226562 18.460938 C 10.152344 18.375 10.121094 18.277344 10.128906 18.164062 C 10.136719 18.050781 10.183594 17.957031 10.265625 17.886719 L 24.3125 5.621094 C 24.398438 5.546875 24.496094 5.511719 24.609375 5.519531 C 24.722656 5.527344 24.8125 5.574219 24.886719 5.660156 L 37.152344 19.707031 C 37.226562 19.792969 37.257812 19.890625 37.25 20.003906 C 37.242188 20.113281 37.195312 20.207031 37.113281 20.28125 Z M 37.113281 20.28125 " fill-opacity="1" fill-rule="nonzero"/></g></g></g></svg>